M48
; DRILL file {KiCad 7.0.1} date Wed Aug  7 08:58:37 2024
; FORMAT={-:-/ absolute / metric / decimal}
; #@! TF.CreationDate,2024-08-07T08:58:37-03:00
; #@! TF.GenerationSoftware,Kicad,Pcbnew,7.0.1
; #@! TF.FileFunction,Plated,1,2,PTH
FMAT,2
METRIC
; #@! TA.AperFunction,Plated,PTH,ComponentDrill
T1C1.016
%
G90
G05
T1
X122.936Y-60.452
X124.46Y-67.945
X124.46Y-70.485
X124.46Y-73.025
X124.46Y-75.565
X124.46Y-78.105
X124.46Y-80.645
X124.46Y-83.185
X124.46Y-85.725
X124.46Y-90.805
X124.46Y-93.345
X124.46Y-95.885
X135.128Y-84.582
X135.128Y-92.456
X135.636Y-60.452
X139.7Y-67.945
X139.7Y-70.485
X139.7Y-73.025
X139.7Y-75.565
X139.7Y-88.265
X139.7Y-90.805
X139.7Y-93.345
X139.7Y-95.885
X140.017Y-102.87
X140.017Y-105.41
X140.017Y-107.95
X140.017Y-110.49
X140.017Y-113.03
X140.017Y-115.57
X140.017Y-118.11
X140.017Y-120.65
X140.462Y-60.452
X143.002Y-60.452
X143.256Y-85.859
X145.542Y-60.452
X145.796Y-85.859
X146.231Y-66.019
X146.231Y-69.418
X146.231Y-77.019
X146.231Y-80.519
X148.336Y-85.859
X151.932Y-85.598
X153.416Y-91.694
X153.67Y-62.484
X154.432Y-85.598
X155.956Y-91.694
X156.21Y-62.484
X158.496Y-91.694
X159.044Y-85.598
X161.036Y-91.694
X161.544Y-85.598
X165.862Y-62.484
X168.402Y-62.484
X169.13Y-66.319
X169.13Y-80.519
T0
M30
