%TF.GenerationSoftware,KiCad,Pcbnew,7.0.1*%
%TF.CreationDate,2024-08-07T08:58:20-03:00*%
%TF.ProjectId,placa_tx,706c6163-615f-4747-982e-6b696361645f,rev?*%
%TF.SameCoordinates,Original*%
%TF.FileFunction,Copper,L1,Top*%
%TF.FilePolarity,Positive*%
%FSLAX46Y46*%
G04 Gerber Fmt 4.6, Leading zero omitted, Abs format (unit mm)*
G04 Created by KiCad (PCBNEW 7.0.1) date 2024-08-07 08:58:20*
%MOMM*%
%LPD*%
G01*
G04 APERTURE LIST*
%TA.AperFunction,ComponentPad*%
%ADD10C,1.879600*%
%TD*%
%TA.AperFunction,Conductor*%
%ADD11C,2.000000*%
%TD*%
G04 APERTURE END LIST*
D10*
%TO.P,,*%
%TO.N,GND*%
X135128000Y-84582000D03*
%TD*%
%TO.P,,*%
%TO.N,GND*%
X135128000Y-92456000D03*
%TD*%
%TO.P,C1,1*%
%TO.N,Net-(TP1-OUT+)*%
X151932000Y-85598000D03*
%TO.P,C1,2*%
%TO.N,GND*%
X154432000Y-85598000D03*
%TD*%
%TO.P,LoRaSX1,1,VCC*%
%TO.N,VCC*%
X140017500Y-120650000D03*
%TO.P,LoRaSX1,2,MISO*%
%TO.N,Net-(LoRaSX1-MISO)*%
X140017500Y-118110000D03*
%TO.P,LoRaSX1,3,MOSI*%
%TO.N,Net-(LoRaSX1-MOSI)*%
X140017500Y-115570000D03*
%TO.P,LoRaSX1,4,SLK*%
%TO.N,Net-(LoRaSX1-SLK)*%
X140017500Y-113030000D03*
%TO.P,LoRaSX1,5,NSS*%
%TO.N,Net-(LoRaSX1-NSS)*%
X140017500Y-110490000D03*
%TO.P,LoRaSX1,6,DI00*%
%TO.N,Net-(LoRaSX1-DI00)*%
X140017500Y-107950000D03*
%TO.P,LoRaSX1,7,REST*%
%TO.N,Net-(LoRaSX1-REST)*%
X140017500Y-105410000D03*
%TO.P,LoRaSX1,8,GND*%
%TO.N,GND*%
X140017500Y-102870000D03*
%TD*%
%TO.P,panelSolar1,1,5V*%
%TO.N,Net-(TP1-5V)*%
X165862000Y-62484000D03*
%TO.P,panelSolar1,2,GND*%
%TO.N,Net-(TP1-GND)*%
X168402000Y-62484000D03*
%TD*%
%TO.P,U1,1,GND*%
%TO.N,GND*%
X143256000Y-85859481D03*
%TO.P,U1,2,VO*%
%TO.N,VCC*%
X145796000Y-85859481D03*
%TO.P,U1,3,VI*%
%TO.N,Net-(TP1-OUT+)*%
X148336000Y-85859481D03*
%TD*%
%TO.P,Neo-6m1,1,VCC*%
%TO.N,VCC*%
X153416000Y-91694000D03*
%TO.P,Neo-6m1,2,RX*%
%TO.N,unconnected-(Neo-6m1-RX-Pad2)*%
X155956000Y-91694000D03*
%TO.P,Neo-6m1,3,TX*%
%TO.N,Net-(Neo-6m1-TX)*%
X158496000Y-91694000D03*
%TO.P,Neo-6m1,4,GND*%
%TO.N,Net-(Neo-6m1-GND)*%
X161036000Y-91694000D03*
%TD*%
%TO.P,ProMini1,1,TXD*%
%TO.N,unconnected-(ProMini1-TXD-Pad1)*%
X124460000Y-67945000D03*
%TO.P,ProMini1,2,RXD*%
%TO.N,unconnected-(ProMini1-RXD-Pad2)*%
X124460000Y-70485000D03*
%TO.P,ProMini1,3,RST*%
%TO.N,unconnected-(ProMini1-RST-Pad3)*%
X124460000Y-73025000D03*
%TO.P,ProMini1,4,GND*%
%TO.N,GND*%
X124460000Y-75565000D03*
%TO.P,ProMini1,5,2*%
%TO.N,unconnected-(ProMini1-2-Pad5)*%
X124460000Y-78105000D03*
%TO.P,ProMini1,6,3*%
%TO.N,unconnected-(ProMini1-3-Pad6)*%
X124460000Y-80645000D03*
%TO.P,ProMini1,7,4*%
%TO.N,Net-(Neo-6m1-TX)*%
X124460000Y-83185000D03*
%TO.P,ProMini1,8,5*%
%TO.N,Net-(ProMini1-5)*%
X124460000Y-85725000D03*
%TO.P,ProMini1,10,7*%
%TO.N,unconnected-(ProMini1-7-Pad10)*%
X124460000Y-90805000D03*
%TO.P,ProMini1,11,8*%
%TO.N,Net-(LoRaSX1-REST)*%
X124460000Y-93345000D03*
%TO.P,ProMini1,12,9*%
%TO.N,Net-(LoRaSX1-DI00)*%
X124460000Y-95885000D03*
%TO.P,ProMini1,19,RAW*%
%TO.N,unconnected-(ProMini1-RAW-Pad19)*%
X139700000Y-67945000D03*
%TO.P,ProMini1,20,GND*%
%TO.N,GND*%
X139700000Y-70485000D03*
%TO.P,ProMini1,21,RST*%
%TO.N,unconnected-(ProMini1-RST-Pad21)*%
X139700000Y-73025000D03*
%TO.P,ProMini1,22,VCC1*%
%TO.N,VCC*%
X139700000Y-75565000D03*
%TO.P,ProMini1,27,SCK*%
%TO.N,Net-(LoRaSX1-SLK)*%
X139700000Y-88265000D03*
%TO.P,ProMini1,28,MISO*%
%TO.N,Net-(LoRaSX1-MISO)*%
X139700000Y-90805000D03*
%TO.P,ProMini1,29,MOSI*%
%TO.N,Net-(LoRaSX1-MOSI)*%
X139700000Y-93345000D03*
%TO.P,ProMini1,30,SS*%
%TO.N,Net-(LoRaSX1-NSS)*%
X139700000Y-95885000D03*
%TD*%
%TO.P,TP1,1,5V*%
%TO.N,Net-(TP1-5V)*%
X169130500Y-80518500D03*
%TO.P,TP1,2,GND*%
%TO.N,Net-(TP1-GND)*%
X169130500Y-66318500D03*
%TO.P,TP1,3,OUT+*%
%TO.N,Net-(TP1-OUT+)*%
X146230500Y-80518500D03*
%TO.P,TP1,4,B+*%
%TO.N,Net-(LiPo3.7v1--)*%
X146230500Y-77018500D03*
%TO.P,TP1,5,B-*%
%TO.N,Net-(LiPo3.7v1-+)*%
X146230500Y-69418500D03*
%TO.P,TP1,6,OUT-*%
%TO.N,GND*%
X146230500Y-66018500D03*
%TD*%
%TO.P,Q1,1,C*%
%TO.N,Net-(Neo-6m1-GND)*%
X145542000Y-60452000D03*
%TO.P,Q1,2,B*%
%TO.N,Net-(Q1-B)*%
X143002000Y-60452000D03*
%TO.P,Q1,3,E*%
%TO.N,GND*%
X140462000Y-60452000D03*
%TD*%
%TO.P,C2,1*%
%TO.N,VCC*%
X159044000Y-85598000D03*
%TO.P,C2,2*%
%TO.N,GND*%
X161544000Y-85598000D03*
%TD*%
%TO.P,R1,1*%
%TO.N,Net-(Q1-B)*%
X135636000Y-60452000D03*
%TO.P,R1,2*%
%TO.N,Net-(ProMini1-5)*%
X122936000Y-60452000D03*
%TD*%
%TO.P,LiPo3.7v1,1,+*%
%TO.N,Net-(LiPo3.7v1-+)*%
X153670000Y-62484000D03*
%TO.P,LiPo3.7v1,2,-*%
%TO.N,Net-(LiPo3.7v1--)*%
X156210000Y-62484000D03*
%TD*%
D11*
%TO.N,Net-(LoRaSX1-REST)*%
X128905000Y-93345000D02*
X124460000Y-93345000D01*
%TO.N,VCC*%
X139700000Y-81788000D02*
X139700000Y-75565000D01*
X142748000Y-81788000D02*
X139700000Y-81788000D01*
X145796000Y-84836000D02*
X142748000Y-81788000D01*
X145796000Y-85859481D02*
X145796000Y-84836000D01*
%TO.N,Net-(LiPo3.7v1-+)*%
X153670000Y-66040000D02*
X153670000Y-62484000D01*
X150291500Y-69418500D02*
X153670000Y-66040000D01*
X146230500Y-69418500D02*
X150291500Y-69418500D01*
%TO.N,Net-(LiPo3.7v1--)*%
X151384000Y-72644000D02*
X147828000Y-72644000D01*
X147828000Y-72644000D02*
X146230500Y-74241500D01*
X156210000Y-67818000D02*
X151384000Y-72644000D01*
X146230500Y-74241500D02*
X146230500Y-77018500D01*
X156210000Y-62484000D02*
X156210000Y-67818000D01*
%TO.N,VCC*%
X145796000Y-87188558D02*
X147212442Y-88605000D01*
X153121000Y-88605000D02*
X153416000Y-88900000D01*
X153416000Y-114554000D02*
X153416000Y-91694000D01*
X145796000Y-85859481D02*
X145796000Y-87188558D01*
X158496000Y-88900000D02*
X153416000Y-88900000D01*
X159044000Y-85598000D02*
X159044000Y-88352000D01*
X159044000Y-88352000D02*
X158496000Y-88900000D01*
X153416000Y-88900000D02*
X153416000Y-91694000D01*
X147212442Y-88605000D02*
X153121000Y-88605000D01*
X147320000Y-120650000D02*
X153416000Y-114554000D01*
X140017500Y-120650000D02*
X147320000Y-120650000D01*
%TO.N,Net-(LoRaSX1-MISO)*%
X149860000Y-113665000D02*
X145415000Y-118110000D01*
X139700000Y-90805000D02*
X146177000Y-90805000D01*
X149860000Y-94488000D02*
X149860000Y-113665000D01*
X145415000Y-118110000D02*
X140017500Y-118110000D01*
X146177000Y-90805000D02*
X149860000Y-94488000D01*
%TO.N,Net-(LoRaSX1-MOSI)*%
X143510000Y-115570000D02*
X140017500Y-115570000D01*
X142875000Y-93345000D02*
X144780000Y-93345000D01*
X144780000Y-93345000D02*
X146685000Y-95250000D01*
X139700000Y-93345000D02*
X142875000Y-93345000D01*
X146685000Y-112395000D02*
X143510000Y-115570000D01*
X146685000Y-95250000D02*
X146685000Y-112395000D01*
%TO.N,Net-(LoRaSX1-SLK)*%
X139700000Y-88265000D02*
X122555000Y-88265000D01*
X122555000Y-88265000D02*
X121920000Y-88900000D01*
X123825000Y-113030000D02*
X140017500Y-113030000D01*
X121920000Y-88900000D02*
X121920000Y-111125000D01*
X121920000Y-111125000D02*
X123825000Y-113030000D01*
%TO.N,Net-(LoRaSX1-NSS)*%
X140017500Y-110490000D02*
X141605000Y-110490000D01*
X142875000Y-109220000D02*
X142875000Y-97155000D01*
X141605000Y-110490000D02*
X142875000Y-109220000D01*
X141605000Y-95885000D02*
X139700000Y-95885000D01*
X142875000Y-97155000D02*
X141605000Y-95885000D01*
%TO.N,Net-(LoRaSX1-DI00)*%
X128905000Y-103505000D02*
X133350000Y-107950000D01*
X127000000Y-95885000D02*
X128905000Y-97790000D01*
X128905000Y-97790000D02*
X128905000Y-103505000D01*
X133350000Y-107950000D02*
X140017500Y-107950000D01*
X124460000Y-95885000D02*
X127000000Y-95885000D01*
%TO.N,Net-(LoRaSX1-REST)*%
X140017500Y-105410000D02*
X134620000Y-105410000D01*
X131445000Y-95885000D02*
X128905000Y-93345000D01*
X131445000Y-102235000D02*
X131445000Y-95885000D01*
X134620000Y-105410000D02*
X131445000Y-102235000D01*
%TO.N,Net-(Neo-6m1-TX)*%
X133350000Y-118110000D02*
X133350000Y-122555000D01*
X158496000Y-115824000D02*
X158496000Y-91694000D01*
X135255000Y-124460000D02*
X149860000Y-124460000D01*
X149860000Y-124460000D02*
X158496000Y-115824000D01*
X121920000Y-116205000D02*
X131445000Y-116205000D01*
X118745000Y-86360000D02*
X118745000Y-113030000D01*
X131445000Y-116205000D02*
X133350000Y-118110000D01*
X133350000Y-122555000D02*
X135255000Y-124460000D01*
X121920000Y-83185000D02*
X118745000Y-86360000D01*
X124460000Y-83185000D02*
X121920000Y-83185000D01*
X118745000Y-113030000D02*
X121920000Y-116205000D01*
%TO.N,Net-(TP1-5V)*%
X165862000Y-62484000D02*
X165862000Y-67564000D01*
X169130500Y-70899500D02*
X169130500Y-80518500D01*
X169164000Y-70866000D02*
X169130500Y-70899500D01*
X165862000Y-67564000D02*
X169164000Y-70866000D01*
%TO.N,Net-(TP1-GND)*%
X168402000Y-62484000D02*
X168402000Y-65590000D01*
X168402000Y-65590000D02*
X169130500Y-66318500D01*
%TO.N,Net-(Neo-6m1-GND)*%
X165608000Y-71628000D02*
X165608000Y-90678000D01*
X163068000Y-60978730D02*
X163068000Y-69088000D01*
X164592000Y-91694000D02*
X161036000Y-91694000D01*
X160255270Y-58166000D02*
X163068000Y-60978730D01*
X147828000Y-58166000D02*
X160255270Y-58166000D01*
X145542000Y-60452000D02*
X147828000Y-58166000D01*
X165608000Y-90678000D02*
X164592000Y-91694000D01*
X163068000Y-69088000D02*
X165608000Y-71628000D01*
%TO.N,Net-(ProMini1-5)*%
X127127000Y-85725000D02*
X124460000Y-85725000D01*
X128270000Y-66294000D02*
X125730000Y-63754000D01*
X128270000Y-66294000D02*
X128270000Y-84582000D01*
X123698000Y-63754000D02*
X122936000Y-62992000D01*
X122936000Y-62992000D02*
X122936000Y-60452000D01*
X128270000Y-84582000D02*
X127127000Y-85725000D01*
X125730000Y-63754000D02*
X123698000Y-63754000D01*
%TO.N,Net-(Q1-B)*%
X143002000Y-60452000D02*
X143002000Y-63754000D01*
X141986000Y-64770000D02*
X136652000Y-64770000D01*
X136652000Y-64770000D02*
X135636000Y-63754000D01*
X143002000Y-63754000D02*
X141986000Y-64770000D01*
X135636000Y-63754000D02*
X135636000Y-60452000D01*
%TO.N,Net-(TP1-OUT+)*%
X146230500Y-80518500D02*
X148336000Y-82624000D01*
X148336000Y-85859481D02*
X151670519Y-85859481D01*
X148336000Y-82624000D02*
X148336000Y-85859481D01*
X151670519Y-85859481D02*
X151932000Y-85598000D01*
X148343481Y-85852000D02*
X148336000Y-85859481D01*
%TD*%
%TA.AperFunction,Conductor*%
%TO.N,GND*%
G36*
X146816415Y-56786305D02*
G01*
X146869651Y-56832928D01*
X146895373Y-56898853D01*
X146887779Y-56969210D01*
X146848582Y-57028129D01*
X146836828Y-57038948D01*
X146832222Y-57043016D01*
X146810872Y-57061099D01*
X146791094Y-57080876D01*
X146786655Y-57085135D01*
X146720259Y-57146257D01*
X146706791Y-57163561D01*
X146694571Y-57177399D01*
X144437093Y-59434878D01*
X144387085Y-59493922D01*
X144337439Y-59532152D01*
X144276465Y-59546590D01*
X144214947Y-59534683D01*
X144163764Y-59498537D01*
X144021744Y-59344262D01*
X143825509Y-59191526D01*
X143606809Y-59073171D01*
X143371613Y-58992428D01*
X143167263Y-58958329D01*
X143126335Y-58951500D01*
X142877665Y-58951500D01*
X142842589Y-58957352D01*
X142632386Y-58992428D01*
X142397190Y-59073171D01*
X142178490Y-59191526D01*
X141982255Y-59344262D01*
X141813834Y-59527217D01*
X141792429Y-59559979D01*
X141755106Y-59599146D01*
X141706257Y-59622404D01*
X141652324Y-59626686D01*
X141641942Y-59625609D01*
X140462000Y-60805553D01*
X139634840Y-61632711D01*
X139634840Y-61632712D01*
X139671802Y-61661482D01*
X139881658Y-61775050D01*
X140107339Y-61852525D01*
X140342696Y-61891800D01*
X140581304Y-61891800D01*
X140816660Y-61852525D01*
X141042341Y-61775050D01*
X141252199Y-61661481D01*
X141260984Y-61654644D01*
X141320720Y-61626656D01*
X141386686Y-61627202D01*
X141445950Y-61656175D01*
X141486897Y-61707896D01*
X141501500Y-61772227D01*
X141501500Y-63070754D01*
X141490158Y-63127774D01*
X141457859Y-63176113D01*
X141408113Y-63225859D01*
X141359774Y-63258158D01*
X141302754Y-63269500D01*
X137335246Y-63269500D01*
X137278226Y-63258158D01*
X137229887Y-63225859D01*
X137180141Y-63176113D01*
X137147842Y-63127774D01*
X137136500Y-63070754D01*
X137136500Y-60451999D01*
X139017264Y-60451999D01*
X139036968Y-60689792D01*
X139095546Y-60921110D01*
X139191389Y-61139612D01*
X139282057Y-61278388D01*
X140108447Y-60452000D01*
X139282056Y-59625609D01*
X139191391Y-59764384D01*
X139095546Y-59982889D01*
X139036968Y-60214207D01*
X139017264Y-60451999D01*
X137136500Y-60451999D01*
X137136500Y-60389931D01*
X137121108Y-60204182D01*
X137121108Y-60204179D01*
X137060063Y-59963119D01*
X136960173Y-59735393D01*
X136824164Y-59527215D01*
X136655744Y-59344262D01*
X136561986Y-59271287D01*
X139634840Y-59271287D01*
X140461999Y-60098446D01*
X141289158Y-59271286D01*
X141252195Y-59242516D01*
X141042341Y-59128949D01*
X140816660Y-59051474D01*
X140581304Y-59012200D01*
X140342696Y-59012200D01*
X140107339Y-59051474D01*
X139881658Y-59128949D01*
X139671804Y-59242516D01*
X139634840Y-59271286D01*
X139634840Y-59271287D01*
X136561986Y-59271287D01*
X136459509Y-59191526D01*
X136343877Y-59128949D01*
X136240809Y-59073171D01*
X136005613Y-58992428D01*
X135801263Y-58958329D01*
X135760335Y-58951500D01*
X135511665Y-58951500D01*
X135476589Y-58957352D01*
X135266386Y-58992428D01*
X135031190Y-59073171D01*
X134812490Y-59191526D01*
X134616255Y-59344262D01*
X134447835Y-59527215D01*
X134311826Y-59735393D01*
X134211938Y-59963116D01*
X134211937Y-59963119D01*
X134205751Y-59987547D01*
X134150891Y-60204182D01*
X134135500Y-60389931D01*
X134135500Y-63651584D01*
X134134356Y-63670014D01*
X134131643Y-63691778D01*
X134135373Y-63781964D01*
X134135500Y-63788121D01*
X134135500Y-63816074D01*
X134137806Y-63843912D01*
X134138188Y-63850052D01*
X134141919Y-63940241D01*
X134146419Y-63961703D01*
X134149079Y-63979962D01*
X134150890Y-64001816D01*
X134173043Y-64089296D01*
X134174430Y-64095293D01*
X134192950Y-64183615D01*
X134200921Y-64204044D01*
X134206551Y-64221616D01*
X134211937Y-64242883D01*
X134248186Y-64325525D01*
X134250542Y-64331211D01*
X134262656Y-64362257D01*
X134283344Y-64415274D01*
X134294572Y-64434118D01*
X134303019Y-64450528D01*
X134311827Y-64470607D01*
X134361175Y-64546142D01*
X134364423Y-64551343D01*
X134410633Y-64628893D01*
X134424804Y-64645624D01*
X134435842Y-64660427D01*
X134447835Y-64678784D01*
X134508949Y-64745172D01*
X134513024Y-64749786D01*
X134531100Y-64771128D01*
X134550871Y-64790899D01*
X134555135Y-64795343D01*
X134613641Y-64858898D01*
X134616256Y-64861738D01*
X134633555Y-64875202D01*
X134633560Y-64875206D01*
X134647402Y-64887430D01*
X135518570Y-65758598D01*
X135530791Y-65772437D01*
X135544260Y-65789742D01*
X135610654Y-65850862D01*
X135615098Y-65855125D01*
X135634874Y-65874902D01*
X135656232Y-65892991D01*
X135660815Y-65897038D01*
X135727215Y-65958164D01*
X135733056Y-65961980D01*
X135745571Y-65970157D01*
X135760375Y-65981196D01*
X135777104Y-65995365D01*
X135854634Y-66041563D01*
X135859857Y-66044824D01*
X135895367Y-66068023D01*
X135935393Y-66094173D01*
X135951722Y-66101335D01*
X135955469Y-66102979D01*
X135971885Y-66111429D01*
X135990726Y-66122656D01*
X135990729Y-66122657D01*
X136074788Y-66155457D01*
X136080478Y-66157814D01*
X136163113Y-66194061D01*
X136163116Y-66194061D01*
X136163119Y-66194063D01*
X136184388Y-66199449D01*
X136201952Y-66205075D01*
X136222386Y-66213049D01*
X136310744Y-66231576D01*
X136316657Y-66232944D01*
X136404179Y-66255108D01*
X136416406Y-66256121D01*
X136426024Y-66256918D01*
X136444294Y-66259579D01*
X136465763Y-66264081D01*
X136555962Y-66267811D01*
X136562042Y-66268188D01*
X136589933Y-66270500D01*
X136617879Y-66270500D01*
X136624035Y-66270626D01*
X136714221Y-66274357D01*
X136735986Y-66271643D01*
X136754416Y-66270500D01*
X139248950Y-66270500D01*
X139316229Y-66286554D01*
X139369009Y-66331257D01*
X139395918Y-66394976D01*
X139391156Y-66463979D01*
X139355750Y-66523397D01*
X139297330Y-66560427D01*
X139119453Y-66621491D01*
X138909529Y-66735097D01*
X138721166Y-66881704D01*
X138559507Y-67057315D01*
X138428952Y-67257144D01*
X138333072Y-67475730D01*
X138274474Y-67707125D01*
X138254763Y-67945000D01*
X138274474Y-68182874D01*
X138274474Y-68182877D01*
X138274475Y-68182878D01*
X138329143Y-68398756D01*
X138333072Y-68414269D01*
X138428952Y-68632855D01*
X138559507Y-68832684D01*
X138721166Y-69008295D01*
X138836079Y-69097734D01*
X138878422Y-69149874D01*
X138893562Y-69215313D01*
X138878424Y-69280753D01*
X138873960Y-69286249D01*
X138872840Y-69304287D01*
X139699999Y-70131446D01*
X140527158Y-69304286D01*
X140526039Y-69286253D01*
X140521575Y-69280756D01*
X140506436Y-69215316D01*
X140521576Y-69149876D01*
X140563917Y-69097736D01*
X140678832Y-69008295D01*
X140742434Y-68939205D01*
X140840492Y-68832684D01*
X140840491Y-68832684D01*
X140840494Y-68832682D01*
X140971047Y-68632856D01*
X141066929Y-68414267D01*
X141125525Y-68182878D01*
X141145236Y-67945000D01*
X141125525Y-67707122D01*
X141066929Y-67475733D01*
X140971047Y-67257144D01*
X140933198Y-67199212D01*
X145403340Y-67199212D01*
X145440302Y-67227982D01*
X145650158Y-67341550D01*
X145875839Y-67419025D01*
X146111196Y-67458300D01*
X146349804Y-67458300D01*
X146585160Y-67419025D01*
X146810841Y-67341550D01*
X147020693Y-67227983D01*
X147057658Y-67199211D01*
X146230500Y-66372053D01*
X145403340Y-67199211D01*
X145403340Y-67199212D01*
X140933198Y-67199212D01*
X140840494Y-67057318D01*
X140840493Y-67057317D01*
X140840492Y-67057315D01*
X140678833Y-66881704D01*
X140490470Y-66735097D01*
X140280546Y-66621491D01*
X140102670Y-66560427D01*
X140044250Y-66523397D01*
X140008844Y-66463979D01*
X140004082Y-66394976D01*
X140030991Y-66331257D01*
X140083771Y-66286554D01*
X140151050Y-66270500D01*
X141883584Y-66270500D01*
X141902013Y-66271643D01*
X141923779Y-66274357D01*
X142013964Y-66270626D01*
X142020121Y-66270500D01*
X142048061Y-66270500D01*
X142048067Y-66270500D01*
X142075962Y-66268187D01*
X142082033Y-66267811D01*
X142172237Y-66264081D01*
X142193703Y-66259579D01*
X142211976Y-66256918D01*
X142219530Y-66256292D01*
X142233821Y-66255108D01*
X142321363Y-66232938D01*
X142327253Y-66231576D01*
X142415614Y-66213049D01*
X142436048Y-66205075D01*
X142453613Y-66199448D01*
X142474881Y-66194063D01*
X142557528Y-66157810D01*
X142563210Y-66155457D01*
X142647274Y-66122656D01*
X142666104Y-66111434D01*
X142682531Y-66102978D01*
X142702607Y-66094173D01*
X142702611Y-66094171D01*
X142778161Y-66044811D01*
X142783344Y-66041575D01*
X142822071Y-66018499D01*
X144785764Y-66018499D01*
X144805468Y-66256292D01*
X144864046Y-66487610D01*
X144959889Y-66706112D01*
X145050557Y-66844888D01*
X145876947Y-66018500D01*
X146584053Y-66018500D01*
X147410442Y-66844888D01*
X147501108Y-66706117D01*
X147596953Y-66487610D01*
X147655531Y-66256292D01*
X147675235Y-66018499D01*
X147655531Y-65780707D01*
X147596953Y-65549389D01*
X147501108Y-65330883D01*
X147410442Y-65192110D01*
X146584053Y-66018500D01*
X145876947Y-66018500D01*
X145050556Y-65192109D01*
X144959891Y-65330884D01*
X144864046Y-65549389D01*
X144805468Y-65780707D01*
X144785764Y-66018499D01*
X142822071Y-66018499D01*
X142860894Y-65995366D01*
X142877624Y-65981196D01*
X142892427Y-65970157D01*
X142910785Y-65958164D01*
X142977188Y-65897033D01*
X142981749Y-65893005D01*
X143003126Y-65874902D01*
X143022922Y-65855104D01*
X143027317Y-65850887D01*
X143093738Y-65789744D01*
X143107213Y-65772430D01*
X143119420Y-65758606D01*
X143990606Y-64887420D01*
X144004430Y-64875213D01*
X144021744Y-64861738D01*
X144043792Y-64837787D01*
X145403340Y-64837787D01*
X146230499Y-65664946D01*
X147057658Y-64837786D01*
X147020695Y-64809016D01*
X146810841Y-64695449D01*
X146585160Y-64617974D01*
X146349804Y-64578700D01*
X146111196Y-64578700D01*
X145875839Y-64617974D01*
X145650158Y-64695449D01*
X145440304Y-64809016D01*
X145403340Y-64837786D01*
X145403340Y-64837787D01*
X144043792Y-64837787D01*
X144082887Y-64795317D01*
X144087104Y-64790922D01*
X144106902Y-64771126D01*
X144125005Y-64749749D01*
X144129033Y-64745188D01*
X144190164Y-64678785D01*
X144202158Y-64660424D01*
X144213196Y-64645624D01*
X144227364Y-64628896D01*
X144227366Y-64628894D01*
X144273576Y-64551343D01*
X144276811Y-64546161D01*
X144326172Y-64470609D01*
X144334976Y-64450536D01*
X144343435Y-64434104D01*
X144354655Y-64415275D01*
X144354656Y-64415274D01*
X144387463Y-64331194D01*
X144389814Y-64325519D01*
X144426062Y-64242883D01*
X144426063Y-64242881D01*
X144431448Y-64221613D01*
X144437077Y-64204044D01*
X144445049Y-64183614D01*
X144463576Y-64095253D01*
X144464938Y-64089363D01*
X144487108Y-64001821D01*
X144488918Y-63979976D01*
X144491579Y-63961703D01*
X144496081Y-63940237D01*
X144499811Y-63850033D01*
X144500187Y-63843962D01*
X144502500Y-63816067D01*
X144502500Y-63788121D01*
X144502627Y-63781964D01*
X144506357Y-63691779D01*
X144503643Y-63670013D01*
X144502500Y-63651584D01*
X144502500Y-61842986D01*
X144516576Y-61779768D01*
X144556144Y-61728494D01*
X144613729Y-61698853D01*
X144678451Y-61696444D01*
X144738080Y-61721722D01*
X144771284Y-61745429D01*
X144771285Y-61745429D01*
X144771286Y-61745430D01*
X144994682Y-61854642D01*
X144994684Y-61854642D01*
X144994687Y-61854644D01*
X145233019Y-61925599D01*
X145479779Y-61956357D01*
X145728237Y-61946081D01*
X145971614Y-61895049D01*
X146203274Y-61804656D01*
X146416894Y-61677366D01*
X146559126Y-61556902D01*
X148405887Y-59710140D01*
X148454226Y-59677842D01*
X148511246Y-59666500D01*
X159572024Y-59666500D01*
X159629044Y-59677842D01*
X159677383Y-59710141D01*
X161523859Y-61556617D01*
X161556158Y-61604956D01*
X161567500Y-61661976D01*
X161567500Y-68985584D01*
X161566356Y-69004014D01*
X161563643Y-69025778D01*
X161567373Y-69115964D01*
X161567500Y-69122121D01*
X161567500Y-69150074D01*
X161569806Y-69177912D01*
X161570188Y-69184052D01*
X161573919Y-69274241D01*
X161578419Y-69295703D01*
X161581079Y-69313962D01*
X161582890Y-69335816D01*
X161605043Y-69423296D01*
X161606430Y-69429293D01*
X161624950Y-69517615D01*
X161632921Y-69538044D01*
X161638551Y-69555616D01*
X161643937Y-69576883D01*
X161680186Y-69659525D01*
X161682542Y-69665211D01*
X161715344Y-69749274D01*
X161726572Y-69768118D01*
X161735019Y-69784528D01*
X161743827Y-69804607D01*
X161793175Y-69880142D01*
X161796423Y-69885343D01*
X161842633Y-69962893D01*
X161856804Y-69979624D01*
X161867842Y-69994427D01*
X161879835Y-70012784D01*
X161940949Y-70079172D01*
X161945024Y-70083786D01*
X161963100Y-70105128D01*
X161982871Y-70124899D01*
X161987135Y-70129343D01*
X162048256Y-70195738D01*
X162065560Y-70209206D01*
X162079402Y-70221430D01*
X163077909Y-71219937D01*
X164063859Y-72205886D01*
X164096158Y-72254225D01*
X164107500Y-72311245D01*
X164107500Y-89994754D01*
X164096158Y-90051774D01*
X164063859Y-90100113D01*
X164014113Y-90149859D01*
X163965774Y-90182158D01*
X163908754Y-90193500D01*
X160973931Y-90193500D01*
X160788182Y-90208891D01*
X160678392Y-90236694D01*
X160547119Y-90269937D01*
X160547117Y-90269937D01*
X160547116Y-90269938D01*
X160319393Y-90369826D01*
X160111215Y-90505835D01*
X159928260Y-90674256D01*
X159884435Y-90730563D01*
X159835046Y-90771524D01*
X159773010Y-90787917D01*
X159709833Y-90776702D01*
X159657231Y-90739958D01*
X159515747Y-90586264D01*
X159319509Y-90433526D01*
X159306041Y-90426237D01*
X159258624Y-90385739D01*
X159231933Y-90329380D01*
X159230645Y-90267034D01*
X159254985Y-90209621D01*
X159300686Y-90167200D01*
X159370894Y-90125366D01*
X159387624Y-90111196D01*
X159402424Y-90100158D01*
X159420785Y-90088164D01*
X159487188Y-90027033D01*
X159491749Y-90023005D01*
X159513126Y-90004902D01*
X159532922Y-89985104D01*
X159537317Y-89980887D01*
X159603738Y-89919744D01*
X159617213Y-89902430D01*
X159629420Y-89888606D01*
X160032606Y-89485420D01*
X160046430Y-89473213D01*
X160063744Y-89459738D01*
X160124887Y-89393317D01*
X160129104Y-89388922D01*
X160148902Y-89369126D01*
X160167005Y-89347749D01*
X160171033Y-89343188D01*
X160232164Y-89276785D01*
X160244158Y-89258424D01*
X160255196Y-89243624D01*
X160269364Y-89226896D01*
X160269366Y-89226894D01*
X160315575Y-89149344D01*
X160318811Y-89144161D01*
X160368172Y-89068609D01*
X160376976Y-89048536D01*
X160385435Y-89032104D01*
X160396655Y-89013275D01*
X160396656Y-89013274D01*
X160429463Y-88929194D01*
X160431814Y-88923519D01*
X160455373Y-88869810D01*
X160468063Y-88840881D01*
X160473448Y-88819613D01*
X160479075Y-88802048D01*
X160487049Y-88781614D01*
X160505576Y-88693253D01*
X160506938Y-88687363D01*
X160529108Y-88599821D01*
X160530918Y-88577976D01*
X160533579Y-88559703D01*
X160538081Y-88538237D01*
X160541811Y-88448033D01*
X160542187Y-88441962D01*
X160544500Y-88414067D01*
X160544500Y-88386121D01*
X160544627Y-88379964D01*
X160548357Y-88289779D01*
X160545644Y-88268014D01*
X160544500Y-88249584D01*
X160544500Y-86944268D01*
X160563952Y-86870659D01*
X160617229Y-86816269D01*
X160690420Y-86795300D01*
X160764416Y-86813226D01*
X160963658Y-86921050D01*
X161189339Y-86998525D01*
X161424696Y-87037800D01*
X161663304Y-87037800D01*
X161898660Y-86998525D01*
X162124341Y-86921050D01*
X162334193Y-86807483D01*
X162371158Y-86778711D01*
X161190447Y-85598000D01*
X161897553Y-85598000D01*
X162723942Y-86424389D01*
X162723942Y-86424388D01*
X162814608Y-86285617D01*
X162910453Y-86067110D01*
X162969031Y-85835792D01*
X162988735Y-85598000D01*
X162969031Y-85360207D01*
X162910453Y-85128889D01*
X162814608Y-84910383D01*
X162723942Y-84771610D01*
X161897553Y-85598000D01*
X161190447Y-85598000D01*
X160358669Y-84766222D01*
X160337201Y-84764518D01*
X160288352Y-84741259D01*
X160251030Y-84702093D01*
X160232164Y-84673215D01*
X160063744Y-84490262D01*
X159969986Y-84417287D01*
X160716840Y-84417287D01*
X161543999Y-85244446D01*
X162371158Y-84417286D01*
X162334195Y-84388516D01*
X162124341Y-84274949D01*
X161898660Y-84197474D01*
X161663304Y-84158200D01*
X161424696Y-84158200D01*
X161189339Y-84197474D01*
X160963658Y-84274949D01*
X160753804Y-84388516D01*
X160716840Y-84417286D01*
X160716840Y-84417287D01*
X159969986Y-84417287D01*
X159867509Y-84337526D01*
X159751877Y-84274949D01*
X159648809Y-84219171D01*
X159413613Y-84138428D01*
X159206797Y-84103918D01*
X159168335Y-84097500D01*
X158919665Y-84097500D01*
X158884589Y-84103352D01*
X158674386Y-84138428D01*
X158439190Y-84219171D01*
X158220490Y-84337526D01*
X158024255Y-84490262D01*
X157855835Y-84673215D01*
X157719826Y-84881393D01*
X157636709Y-85070882D01*
X157619937Y-85109119D01*
X157590194Y-85226571D01*
X157558891Y-85350182D01*
X157543500Y-85535931D01*
X157543500Y-87250500D01*
X157532158Y-87307520D01*
X157499859Y-87355859D01*
X157451520Y-87388158D01*
X157394500Y-87399500D01*
X154070260Y-87399500D01*
X154030704Y-87394154D01*
X153993989Y-87378498D01*
X153955995Y-87355859D01*
X153918342Y-87333422D01*
X153913142Y-87330175D01*
X153837607Y-87280827D01*
X153817528Y-87272019D01*
X153801118Y-87263572D01*
X153782274Y-87252344D01*
X153706250Y-87222679D01*
X153698211Y-87219542D01*
X153692525Y-87217186D01*
X153609883Y-87180937D01*
X153588616Y-87175551D01*
X153571044Y-87169921D01*
X153550615Y-87161950D01*
X153462293Y-87143430D01*
X153456296Y-87142043D01*
X153368816Y-87119890D01*
X153346962Y-87118079D01*
X153328703Y-87115419D01*
X153307241Y-87110919D01*
X153217052Y-87107188D01*
X153210912Y-87106806D01*
X153183074Y-87104500D01*
X153183067Y-87104500D01*
X153155121Y-87104500D01*
X153148964Y-87104373D01*
X153058779Y-87100643D01*
X153058778Y-87100643D01*
X153037014Y-87103356D01*
X153018584Y-87104500D01*
X152907702Y-87104500D01*
X152843378Y-87089900D01*
X152791660Y-87048962D01*
X152762682Y-86989708D01*
X152762124Y-86923751D01*
X152790095Y-86864015D01*
X152790286Y-86863769D01*
X152791705Y-86861945D01*
X152803948Y-86848079D01*
X152873315Y-86778712D01*
X153604840Y-86778712D01*
X153641802Y-86807482D01*
X153851658Y-86921050D01*
X154077339Y-86998525D01*
X154312696Y-87037800D01*
X154551304Y-87037800D01*
X154786660Y-86998525D01*
X155012341Y-86921050D01*
X155222193Y-86807483D01*
X155259158Y-86778711D01*
X154432000Y-85951553D01*
X153604840Y-86778711D01*
X153604840Y-86778712D01*
X152873315Y-86778712D01*
X153036897Y-86615131D01*
X153036897Y-86615130D01*
X153036902Y-86615126D01*
X153151943Y-86479295D01*
X153210047Y-86437356D01*
X153243834Y-86432611D01*
X154078447Y-85598000D01*
X154785553Y-85598000D01*
X155611942Y-86424389D01*
X155611942Y-86424388D01*
X155702608Y-86285617D01*
X155798453Y-86067110D01*
X155857031Y-85835792D01*
X155876735Y-85598000D01*
X155857031Y-85360207D01*
X155798453Y-85128889D01*
X155702608Y-84910383D01*
X155611942Y-84771610D01*
X154785553Y-85598000D01*
X154078447Y-85598000D01*
X153247412Y-84766965D01*
X153224552Y-84765309D01*
X153177075Y-84743895D01*
X153139869Y-84707450D01*
X153080932Y-84624904D01*
X152905095Y-84449067D01*
X152860585Y-84417287D01*
X153604840Y-84417287D01*
X154431999Y-85244446D01*
X155259158Y-84417286D01*
X155222195Y-84388516D01*
X155012341Y-84274949D01*
X154786660Y-84197474D01*
X154551304Y-84158200D01*
X154312696Y-84158200D01*
X154077339Y-84197474D01*
X153851658Y-84274949D01*
X153641804Y-84388516D01*
X153604840Y-84417286D01*
X153604840Y-84417287D01*
X152860585Y-84417287D01*
X152702714Y-84304569D01*
X152479317Y-84195357D01*
X152240979Y-84124400D01*
X152025164Y-84097500D01*
X151994221Y-84093643D01*
X151994220Y-84093643D01*
X151745763Y-84103918D01*
X151536180Y-84147864D01*
X151502386Y-84154951D01*
X151502385Y-84154951D01*
X151502382Y-84154952D01*
X151270728Y-84245343D01*
X151115263Y-84337980D01*
X151078547Y-84353635D01*
X151038992Y-84358981D01*
X149985500Y-84358981D01*
X149928480Y-84347639D01*
X149880141Y-84315340D01*
X149847842Y-84267001D01*
X149836500Y-84209981D01*
X149836500Y-82726416D01*
X149837644Y-82707986D01*
X149840357Y-82686221D01*
X149836626Y-82596035D01*
X149836500Y-82589879D01*
X149836500Y-82561938D01*
X149836069Y-82556734D01*
X149834188Y-82534042D01*
X149833811Y-82527962D01*
X149830081Y-82437763D01*
X149825578Y-82416289D01*
X149822918Y-82398036D01*
X149821108Y-82376179D01*
X149798950Y-82288679D01*
X149797569Y-82282708D01*
X149796347Y-82276881D01*
X149779050Y-82194386D01*
X149771077Y-82173954D01*
X149765445Y-82156375D01*
X149760063Y-82135119D01*
X149723813Y-82052478D01*
X149721461Y-82046800D01*
X149717177Y-82035820D01*
X149688656Y-81962727D01*
X149677432Y-81943890D01*
X149668984Y-81927480D01*
X149660173Y-81907393D01*
X149625880Y-81854903D01*
X149610814Y-81831843D01*
X149607553Y-81826618D01*
X149568416Y-81760937D01*
X149561366Y-81749106D01*
X149547194Y-81732373D01*
X149536158Y-81717573D01*
X149524164Y-81699215D01*
X149463040Y-81632816D01*
X149458965Y-81628202D01*
X149440899Y-81606872D01*
X149421137Y-81587110D01*
X149416873Y-81582666D01*
X149355742Y-81516260D01*
X149338432Y-81502787D01*
X149324593Y-81490566D01*
X148289049Y-80455022D01*
X147247626Y-79413598D01*
X147202053Y-79375000D01*
X147105394Y-79293134D01*
X146891774Y-79165844D01*
X146660114Y-79075451D01*
X146582372Y-79059149D01*
X146416736Y-79024418D01*
X146168279Y-79014143D01*
X145921520Y-79044900D01*
X145683182Y-79115857D01*
X145459785Y-79225069D01*
X145257404Y-79369567D01*
X145081567Y-79545404D01*
X144937069Y-79747785D01*
X144827857Y-79971182D01*
X144756900Y-80209520D01*
X144726143Y-80456279D01*
X144736418Y-80704736D01*
X144787452Y-80948117D01*
X144832647Y-81063943D01*
X144877844Y-81179774D01*
X144969059Y-81332852D01*
X145005134Y-81393394D01*
X145123104Y-81532682D01*
X145125598Y-81535626D01*
X145966151Y-82376179D01*
X146791859Y-83201886D01*
X146824158Y-83250225D01*
X146835500Y-83307245D01*
X146835500Y-83393754D01*
X146819260Y-83461399D01*
X146774080Y-83514298D01*
X146709809Y-83540920D01*
X146640456Y-83535461D01*
X146581141Y-83499113D01*
X143881430Y-80799402D01*
X143869206Y-80785560D01*
X143855736Y-80768254D01*
X143789343Y-80707135D01*
X143784899Y-80702871D01*
X143765128Y-80683100D01*
X143743786Y-80665024D01*
X143739172Y-80660949D01*
X143672784Y-80599835D01*
X143654427Y-80587842D01*
X143639624Y-80576804D01*
X143622893Y-80562633D01*
X143545343Y-80516423D01*
X143540142Y-80513175D01*
X143464607Y-80463827D01*
X143444528Y-80455019D01*
X143428118Y-80446572D01*
X143409274Y-80435344D01*
X143336948Y-80407122D01*
X143325211Y-80402542D01*
X143319525Y-80400186D01*
X143236883Y-80363937D01*
X143215616Y-80358551D01*
X143198044Y-80352921D01*
X143177615Y-80344950D01*
X143089293Y-80326430D01*
X143083296Y-80325043D01*
X142995816Y-80302890D01*
X142973962Y-80301079D01*
X142955703Y-80298419D01*
X142934241Y-80293919D01*
X142844052Y-80290188D01*
X142837912Y-80289806D01*
X142810074Y-80287500D01*
X142810067Y-80287500D01*
X142782121Y-80287500D01*
X142775964Y-80287373D01*
X142685779Y-80283643D01*
X142685778Y-80283643D01*
X142664014Y-80286356D01*
X142645584Y-80287500D01*
X141349500Y-80287500D01*
X141292480Y-80276158D01*
X141244141Y-80243859D01*
X141211842Y-80195520D01*
X141200500Y-80138500D01*
X141200500Y-75502931D01*
X141185108Y-75317182D01*
X141185108Y-75317179D01*
X141124063Y-75076119D01*
X141024173Y-74848393D01*
X140888164Y-74640215D01*
X140719744Y-74457262D01*
X140613332Y-74374438D01*
X140570989Y-74322296D01*
X140566692Y-74303721D01*
X144726143Y-74303721D01*
X144728856Y-74325486D01*
X144730000Y-74343916D01*
X144730000Y-77080569D01*
X144745391Y-77266317D01*
X144806438Y-77507383D01*
X144906326Y-77735106D01*
X144906327Y-77735107D01*
X145042336Y-77943285D01*
X145210756Y-78126238D01*
X145406991Y-78278974D01*
X145625690Y-78397328D01*
X145860886Y-78478071D01*
X146106165Y-78519000D01*
X146354834Y-78519000D01*
X146354835Y-78519000D01*
X146600114Y-78478071D01*
X146835310Y-78397328D01*
X147054009Y-78278974D01*
X147250244Y-78126238D01*
X147418664Y-77943285D01*
X147554673Y-77735107D01*
X147654563Y-77507381D01*
X147715608Y-77266321D01*
X147731000Y-77080567D01*
X147731000Y-74924746D01*
X147742342Y-74867726D01*
X147774641Y-74819387D01*
X148405887Y-74188141D01*
X148454226Y-74155842D01*
X148511246Y-74144500D01*
X151281584Y-74144500D01*
X151300013Y-74145643D01*
X151321779Y-74148357D01*
X151411964Y-74144626D01*
X151418121Y-74144500D01*
X151446061Y-74144500D01*
X151446067Y-74144500D01*
X151473962Y-74142187D01*
X151480033Y-74141811D01*
X151570237Y-74138081D01*
X151591703Y-74133579D01*
X151609976Y-74130918D01*
X151616809Y-74130351D01*
X151631821Y-74129108D01*
X151719363Y-74106938D01*
X151725253Y-74105576D01*
X151813614Y-74087049D01*
X151834048Y-74079075D01*
X151851613Y-74073448D01*
X151872881Y-74068063D01*
X151955528Y-74031810D01*
X151961194Y-74029463D01*
X152045274Y-73996656D01*
X152064104Y-73985434D01*
X152080531Y-73976978D01*
X152100607Y-73968173D01*
X152176161Y-73918811D01*
X152181344Y-73915575D01*
X152258894Y-73869366D01*
X152275624Y-73855196D01*
X152290424Y-73844158D01*
X152308785Y-73832164D01*
X152375188Y-73771033D01*
X152379749Y-73767005D01*
X152401126Y-73748902D01*
X152420922Y-73729104D01*
X152425317Y-73724887D01*
X152491738Y-73663744D01*
X152505213Y-73646430D01*
X152517420Y-73632606D01*
X157198600Y-68951425D01*
X157212426Y-68939216D01*
X157229744Y-68925738D01*
X157290899Y-68859304D01*
X157295115Y-68854910D01*
X157314902Y-68835125D01*
X157333012Y-68813740D01*
X157337010Y-68809214D01*
X157398164Y-68742785D01*
X157410155Y-68724430D01*
X157421195Y-68709625D01*
X157422698Y-68707850D01*
X157435366Y-68692894D01*
X157481590Y-68615318D01*
X157484799Y-68610177D01*
X157534173Y-68534607D01*
X157542979Y-68514530D01*
X157551427Y-68498115D01*
X157562656Y-68479273D01*
X157595475Y-68395163D01*
X157597812Y-68389524D01*
X157634061Y-68306886D01*
X157634061Y-68306884D01*
X157634063Y-68306881D01*
X157639445Y-68285622D01*
X157645082Y-68268031D01*
X157653050Y-68247613D01*
X157666625Y-68182874D01*
X157671569Y-68159290D01*
X157672956Y-68153295D01*
X157695108Y-68065821D01*
X157696917Y-68043975D01*
X157699582Y-68025691D01*
X157704081Y-68004238D01*
X157704486Y-67994437D01*
X157707811Y-67914033D01*
X157708187Y-67907962D01*
X157710500Y-67880067D01*
X157710500Y-67852121D01*
X157710627Y-67845964D01*
X157714357Y-67755779D01*
X157711643Y-67734013D01*
X157710500Y-67715584D01*
X157710500Y-62421931D01*
X157699654Y-62291043D01*
X157695108Y-62236179D01*
X157634063Y-61995119D01*
X157534173Y-61767393D01*
X157398164Y-61559215D01*
X157229744Y-61376262D01*
X157033509Y-61223526D01*
X156878450Y-61139612D01*
X156814809Y-61105171D01*
X156579613Y-61024428D01*
X156375262Y-60990329D01*
X156334335Y-60983500D01*
X156085665Y-60983500D01*
X156050589Y-60989352D01*
X155840386Y-61024428D01*
X155605190Y-61105171D01*
X155386490Y-61223526D01*
X155190255Y-61376262D01*
X155049623Y-61529030D01*
X154999853Y-61564565D01*
X154940000Y-61577115D01*
X154880147Y-61564565D01*
X154830377Y-61529030D01*
X154689744Y-61376262D01*
X154493509Y-61223526D01*
X154274809Y-61105171D01*
X154039613Y-61024428D01*
X153835262Y-60990329D01*
X153794335Y-60983500D01*
X153545665Y-60983500D01*
X153510589Y-60989352D01*
X153300386Y-61024428D01*
X153065190Y-61105171D01*
X152846490Y-61223526D01*
X152650255Y-61376262D01*
X152481835Y-61559215D01*
X152345826Y-61767393D01*
X152245938Y-61995116D01*
X152184891Y-62236182D01*
X152169500Y-62421931D01*
X152169500Y-65356755D01*
X152158158Y-65413775D01*
X152125859Y-65462114D01*
X149713613Y-67874359D01*
X149665274Y-67906658D01*
X149608254Y-67918000D01*
X146168431Y-67918000D01*
X145982682Y-67933391D01*
X145936844Y-67944999D01*
X145741619Y-67994437D01*
X145741617Y-67994437D01*
X145741616Y-67994438D01*
X145513893Y-68094326D01*
X145305715Y-68230335D01*
X145122762Y-68398755D01*
X144970026Y-68594990D01*
X144851671Y-68813690D01*
X144770928Y-69048886D01*
X144748885Y-69180990D01*
X144730000Y-69294165D01*
X144730000Y-69542835D01*
X144736829Y-69583762D01*
X144770928Y-69788113D01*
X144851671Y-70023309D01*
X144920899Y-70151230D01*
X144970026Y-70242009D01*
X145122762Y-70438244D01*
X145305715Y-70606664D01*
X145513893Y-70742673D01*
X145741619Y-70842563D01*
X145982679Y-70903608D01*
X146090967Y-70912581D01*
X146168431Y-70919000D01*
X146168433Y-70919000D01*
X147329215Y-70919000D01*
X147395577Y-70934594D01*
X147448049Y-70978113D01*
X147475645Y-71040448D01*
X147472591Y-71108549D01*
X147439525Y-71168163D01*
X147383369Y-71206810D01*
X147377958Y-71208921D01*
X147360388Y-71214550D01*
X147339117Y-71219937D01*
X147256489Y-71256180D01*
X147250804Y-71258535D01*
X147166724Y-71291344D01*
X147147881Y-71302572D01*
X147131472Y-71311019D01*
X147111393Y-71319827D01*
X147035842Y-71369185D01*
X147030622Y-71372443D01*
X146953107Y-71418632D01*
X146936374Y-71432805D01*
X146921576Y-71443839D01*
X146903217Y-71455833D01*
X146836834Y-71516943D01*
X146832222Y-71521016D01*
X146810872Y-71539099D01*
X146791094Y-71558876D01*
X146786655Y-71563135D01*
X146720259Y-71624257D01*
X146706791Y-71641561D01*
X146694571Y-71655399D01*
X145241899Y-73108071D01*
X145228061Y-73120291D01*
X145210757Y-73133759D01*
X145149635Y-73200155D01*
X145145376Y-73204594D01*
X145125599Y-73224372D01*
X145107516Y-73245722D01*
X145103443Y-73250334D01*
X145042333Y-73316717D01*
X145030339Y-73335076D01*
X145019305Y-73349874D01*
X145005132Y-73366607D01*
X144958943Y-73444122D01*
X144955685Y-73449342D01*
X144906327Y-73524893D01*
X144897519Y-73544972D01*
X144889072Y-73561381D01*
X144877844Y-73580224D01*
X144845035Y-73664304D01*
X144842680Y-73669989D01*
X144806437Y-73752617D01*
X144801050Y-73773888D01*
X144795422Y-73791455D01*
X144787451Y-73811886D01*
X144787450Y-73811889D01*
X144768934Y-73900189D01*
X144767547Y-73906184D01*
X144745391Y-73993681D01*
X144743579Y-74015538D01*
X144740919Y-74033796D01*
X144736419Y-74055258D01*
X144732688Y-74145447D01*
X144732306Y-74151587D01*
X144730000Y-74179426D01*
X144730000Y-74207379D01*
X144729873Y-74213536D01*
X144726143Y-74303721D01*
X140566692Y-74303721D01*
X140555850Y-74256855D01*
X140570991Y-74191414D01*
X140613332Y-74139275D01*
X140678832Y-74088295D01*
X140709245Y-74055258D01*
X140840492Y-73912684D01*
X140840491Y-73912684D01*
X140840494Y-73912682D01*
X140971047Y-73712856D01*
X141066929Y-73494267D01*
X141125525Y-73262878D01*
X141145236Y-73025000D01*
X141125525Y-72787122D01*
X141066929Y-72555733D01*
X140971047Y-72337144D01*
X140840494Y-72137318D01*
X140840493Y-72137317D01*
X140840492Y-72137315D01*
X140678836Y-71961708D01*
X140670463Y-71955191D01*
X140563913Y-71872261D01*
X140521574Y-71820123D01*
X140506434Y-71754682D01*
X140521574Y-71689242D01*
X140526039Y-71683742D01*
X140527159Y-71665712D01*
X139700000Y-70838553D01*
X138872840Y-71665711D01*
X138873959Y-71683744D01*
X138878424Y-71689242D01*
X138893563Y-71754682D01*
X138878423Y-71820122D01*
X138836081Y-71872264D01*
X138721164Y-71961707D01*
X138559507Y-72137315D01*
X138428952Y-72337144D01*
X138333072Y-72555730D01*
X138274474Y-72787125D01*
X138254763Y-73025000D01*
X138274474Y-73262874D01*
X138274474Y-73262877D01*
X138274475Y-73262878D01*
X138321694Y-73449342D01*
X138333072Y-73494269D01*
X138428952Y-73712855D01*
X138559507Y-73912684D01*
X138721163Y-74088291D01*
X138721166Y-74088293D01*
X138721168Y-74088295D01*
X138786667Y-74139275D01*
X138829009Y-74191415D01*
X138844149Y-74256855D01*
X138829010Y-74322296D01*
X138786667Y-74374438D01*
X138680255Y-74457261D01*
X138511835Y-74640215D01*
X138375826Y-74848393D01*
X138275938Y-75076116D01*
X138214891Y-75317182D01*
X138199500Y-75502931D01*
X138199500Y-81912337D01*
X138208734Y-81967680D01*
X138210257Y-81979896D01*
X138214891Y-82035820D01*
X138228664Y-82090210D01*
X138231190Y-82102257D01*
X138236674Y-82135115D01*
X138240429Y-82157614D01*
X138248993Y-82182561D01*
X138258652Y-82210697D01*
X138262166Y-82222500D01*
X138275936Y-82276880D01*
X138298472Y-82328255D01*
X138302949Y-82339728D01*
X138321173Y-82392812D01*
X138347883Y-82442167D01*
X138353287Y-82453221D01*
X138375826Y-82504606D01*
X138375827Y-82504607D01*
X138406513Y-82551576D01*
X138412816Y-82562154D01*
X138439526Y-82611510D01*
X138473993Y-82655794D01*
X138481147Y-82665814D01*
X138511834Y-82712783D01*
X138549835Y-82754063D01*
X138557794Y-82763460D01*
X138592263Y-82807746D01*
X138633538Y-82845742D01*
X138642244Y-82854447D01*
X138680257Y-82895739D01*
X138724538Y-82930204D01*
X138733928Y-82938156D01*
X138775215Y-82976164D01*
X138775217Y-82976165D01*
X138775218Y-82976166D01*
X138822182Y-83006849D01*
X138832198Y-83013999D01*
X138862527Y-83037605D01*
X138876492Y-83048475D01*
X138925848Y-83075185D01*
X138936426Y-83081488D01*
X138983393Y-83112173D01*
X139029105Y-83132223D01*
X139034769Y-83134708D01*
X139045837Y-83140119D01*
X139049682Y-83142200D01*
X139095190Y-83166828D01*
X139148284Y-83185054D01*
X139159738Y-83189524D01*
X139184318Y-83200306D01*
X139211118Y-83212063D01*
X139265509Y-83225836D01*
X139277303Y-83229347D01*
X139330386Y-83247571D01*
X139377935Y-83255505D01*
X139385729Y-83256806D01*
X139397776Y-83259331D01*
X139452179Y-83273108D01*
X139508095Y-83277740D01*
X139520305Y-83279261D01*
X139575665Y-83288500D01*
X139637933Y-83288500D01*
X139824335Y-83288500D01*
X142064754Y-83288500D01*
X142121774Y-83299842D01*
X142170113Y-83332141D01*
X143035672Y-84197700D01*
X143070420Y-84252355D01*
X143078697Y-84316590D01*
X143058939Y-84378268D01*
X143014878Y-84425737D01*
X142954839Y-84450027D01*
X142901338Y-84458955D01*
X142675658Y-84536430D01*
X142465804Y-84649997D01*
X142428840Y-84678767D01*
X142428840Y-84678768D01*
X143504193Y-85754121D01*
X143542757Y-85820916D01*
X143542757Y-85898044D01*
X143504193Y-85964839D01*
X142428840Y-87040192D01*
X142428840Y-87040193D01*
X142465802Y-87068963D01*
X142675658Y-87182531D01*
X142901339Y-87260006D01*
X143136696Y-87299281D01*
X143375304Y-87299281D01*
X143610660Y-87260006D01*
X143836341Y-87182531D01*
X144046196Y-87068963D01*
X144053257Y-87063468D01*
X144111790Y-87035744D01*
X144176557Y-87035475D01*
X144235319Y-87062711D01*
X144276974Y-87112306D01*
X144293651Y-87174889D01*
X144295373Y-87216521D01*
X144295500Y-87222679D01*
X144295500Y-87250632D01*
X144297806Y-87278470D01*
X144298188Y-87284610D01*
X144301919Y-87374799D01*
X144306419Y-87396261D01*
X144309079Y-87414520D01*
X144310890Y-87436374D01*
X144333043Y-87523854D01*
X144334430Y-87529851D01*
X144352950Y-87618173D01*
X144360921Y-87638602D01*
X144366551Y-87656174D01*
X144371937Y-87677441D01*
X144408186Y-87760083D01*
X144410542Y-87765769D01*
X144443344Y-87849832D01*
X144454572Y-87868676D01*
X144463019Y-87885086D01*
X144471827Y-87905165D01*
X144521175Y-87980700D01*
X144524423Y-87985901D01*
X144570633Y-88063451D01*
X144584804Y-88080182D01*
X144595842Y-88094985D01*
X144607835Y-88113342D01*
X144668949Y-88179730D01*
X144673024Y-88184344D01*
X144691100Y-88205686D01*
X144710871Y-88225457D01*
X144715135Y-88229901D01*
X144750220Y-88268014D01*
X144776256Y-88296296D01*
X144793560Y-88309764D01*
X144807402Y-88321988D01*
X145292423Y-88807009D01*
X145535556Y-89050141D01*
X145571904Y-89109456D01*
X145577363Y-89178809D01*
X145550741Y-89243080D01*
X145497842Y-89288260D01*
X145430197Y-89304500D01*
X141093640Y-89304500D01*
X141020031Y-89285048D01*
X140965641Y-89231771D01*
X140944672Y-89158579D01*
X140962598Y-89084584D01*
X140990999Y-89032104D01*
X141078828Y-88869810D01*
X141159571Y-88634614D01*
X141200500Y-88389335D01*
X141200500Y-88140665D01*
X141159571Y-87895386D01*
X141078828Y-87660190D01*
X140960474Y-87441491D01*
X140807738Y-87245256D01*
X140776523Y-87216521D01*
X140624784Y-87076835D01*
X140416606Y-86940826D01*
X140188883Y-86840938D01*
X140188881Y-86840937D01*
X139947821Y-86779892D01*
X139947820Y-86779891D01*
X139947817Y-86779891D01*
X139762069Y-86764500D01*
X139762067Y-86764500D01*
X128569245Y-86764500D01*
X128501600Y-86748260D01*
X128448701Y-86703080D01*
X128422079Y-86638809D01*
X128427538Y-86569457D01*
X128463886Y-86510141D01*
X128839989Y-86134038D01*
X129211314Y-85762712D01*
X134300840Y-85762712D01*
X134337802Y-85791482D01*
X134547658Y-85905050D01*
X134773339Y-85982525D01*
X135008696Y-86021800D01*
X135247304Y-86021800D01*
X135482660Y-85982525D01*
X135708341Y-85905050D01*
X135792545Y-85859481D01*
X141811264Y-85859481D01*
X141830968Y-86097273D01*
X141889546Y-86328591D01*
X141985389Y-86547093D01*
X142076057Y-86685869D01*
X142902447Y-85859481D01*
X142076056Y-85033090D01*
X141985391Y-85171865D01*
X141889546Y-85390370D01*
X141830968Y-85621688D01*
X141811264Y-85859481D01*
X135792545Y-85859481D01*
X135918193Y-85791483D01*
X135955158Y-85762711D01*
X135128000Y-84935553D01*
X134300840Y-85762711D01*
X134300840Y-85762712D01*
X129211314Y-85762712D01*
X129258606Y-85715420D01*
X129272430Y-85703213D01*
X129289744Y-85689738D01*
X129350887Y-85623317D01*
X129355104Y-85618922D01*
X129374902Y-85599126D01*
X129393005Y-85577749D01*
X129397033Y-85573188D01*
X129458164Y-85506785D01*
X129470158Y-85488424D01*
X129481196Y-85473624D01*
X129495364Y-85456896D01*
X129495366Y-85456894D01*
X129541575Y-85379344D01*
X129544811Y-85374161D01*
X129594172Y-85298609D01*
X129602976Y-85278536D01*
X129611435Y-85262104D01*
X129617302Y-85252259D01*
X129622656Y-85243274D01*
X129655463Y-85159194D01*
X129657814Y-85153519D01*
X129668618Y-85128889D01*
X129694063Y-85070881D01*
X129699448Y-85049613D01*
X129705075Y-85032048D01*
X129713049Y-85011614D01*
X129731563Y-84923313D01*
X129732950Y-84917318D01*
X129755108Y-84829821D01*
X129756919Y-84807955D01*
X129759581Y-84789688D01*
X129763373Y-84771610D01*
X129764080Y-84768237D01*
X129767810Y-84678034D01*
X129768186Y-84671985D01*
X129770500Y-84644067D01*
X129770500Y-84616113D01*
X129770627Y-84609956D01*
X129771783Y-84581999D01*
X133683264Y-84581999D01*
X133702968Y-84819792D01*
X133761546Y-85051110D01*
X133857389Y-85269612D01*
X133948057Y-85408388D01*
X134774447Y-84582000D01*
X135481553Y-84582000D01*
X136307942Y-85408389D01*
X136307942Y-85408388D01*
X136398608Y-85269617D01*
X136494453Y-85051110D01*
X136553031Y-84819792D01*
X136572735Y-84581999D01*
X136553031Y-84344207D01*
X136494453Y-84112889D01*
X136398608Y-83894383D01*
X136307942Y-83755610D01*
X135481553Y-84582000D01*
X134774447Y-84582000D01*
X133948056Y-83755609D01*
X133857391Y-83894384D01*
X133761546Y-84112889D01*
X133702968Y-84344207D01*
X133683264Y-84581999D01*
X129771783Y-84581999D01*
X129774357Y-84519779D01*
X129771644Y-84498014D01*
X129770500Y-84479584D01*
X129770500Y-83401287D01*
X134300840Y-83401287D01*
X135127999Y-84228446D01*
X135955158Y-83401286D01*
X135918195Y-83372516D01*
X135708341Y-83258949D01*
X135482660Y-83181474D01*
X135247304Y-83142200D01*
X135008696Y-83142200D01*
X134773339Y-83181474D01*
X134547658Y-83258949D01*
X134337804Y-83372516D01*
X134300840Y-83401286D01*
X134300840Y-83401287D01*
X129770500Y-83401287D01*
X129770500Y-70484999D01*
X138255264Y-70484999D01*
X138274968Y-70722792D01*
X138333546Y-70954110D01*
X138429389Y-71172612D01*
X138520057Y-71311388D01*
X139346447Y-70485000D01*
X140053553Y-70485000D01*
X140879942Y-71311389D01*
X140879942Y-71311388D01*
X140970608Y-71172617D01*
X141066453Y-70954110D01*
X141125031Y-70722792D01*
X141144735Y-70484999D01*
X141125031Y-70247207D01*
X141066453Y-70015889D01*
X140970608Y-69797383D01*
X140879942Y-69658610D01*
X140053553Y-70485000D01*
X139346447Y-70485000D01*
X138520056Y-69658609D01*
X138429391Y-69797384D01*
X138333546Y-70015889D01*
X138274968Y-70247207D01*
X138255264Y-70484999D01*
X129770500Y-70484999D01*
X129770500Y-66396416D01*
X129771644Y-66377986D01*
X129771826Y-66376518D01*
X129774357Y-66356221D01*
X129770627Y-66266044D01*
X129770500Y-66259887D01*
X129770500Y-66231939D01*
X129770500Y-66231933D01*
X129768186Y-66204019D01*
X129767810Y-66197961D01*
X129764080Y-66107763D01*
X129759579Y-66086303D01*
X129756919Y-66068044D01*
X129755108Y-66046179D01*
X129732950Y-65958679D01*
X129731562Y-65952679D01*
X129713049Y-65864387D01*
X129713049Y-65864386D01*
X129705075Y-65843952D01*
X129699447Y-65826384D01*
X129694063Y-65805119D01*
X129657786Y-65722417D01*
X129655473Y-65716832D01*
X129622655Y-65632726D01*
X129611430Y-65613888D01*
X129602983Y-65597476D01*
X129594174Y-65577395D01*
X129544812Y-65501840D01*
X129541567Y-65496642D01*
X129495366Y-65419106D01*
X129495365Y-65419105D01*
X129495364Y-65419103D01*
X129481194Y-65402373D01*
X129470158Y-65387573D01*
X129458164Y-65369215D01*
X129397038Y-65302814D01*
X129392963Y-65298199D01*
X129374903Y-65276876D01*
X129355137Y-65257110D01*
X129350873Y-65252666D01*
X129295127Y-65192110D01*
X129289744Y-65186262D01*
X129289743Y-65186261D01*
X129289742Y-65186260D01*
X129272432Y-65172787D01*
X129258593Y-65160566D01*
X126863430Y-62765402D01*
X126851206Y-62751560D01*
X126837736Y-62734254D01*
X126771343Y-62673135D01*
X126766899Y-62668871D01*
X126747128Y-62649100D01*
X126725786Y-62631024D01*
X126721172Y-62626949D01*
X126654784Y-62565835D01*
X126636427Y-62553842D01*
X126621624Y-62542804D01*
X126604893Y-62528633D01*
X126527343Y-62482423D01*
X126522142Y-62479175D01*
X126446607Y-62429827D01*
X126426528Y-62421019D01*
X126410118Y-62412572D01*
X126391274Y-62401344D01*
X126338257Y-62380656D01*
X126307211Y-62368542D01*
X126301525Y-62366186D01*
X126218883Y-62329937D01*
X126197616Y-62324551D01*
X126180044Y-62318921D01*
X126159615Y-62310950D01*
X126071293Y-62292430D01*
X126065296Y-62291043D01*
X125977816Y-62268890D01*
X125955962Y-62267079D01*
X125937703Y-62264419D01*
X125916241Y-62259919D01*
X125826052Y-62256188D01*
X125819912Y-62255806D01*
X125792074Y-62253500D01*
X125792067Y-62253500D01*
X125764121Y-62253500D01*
X125757964Y-62253373D01*
X125667779Y-62249643D01*
X125667778Y-62249643D01*
X125646014Y-62252356D01*
X125627584Y-62253500D01*
X124585500Y-62253500D01*
X124528480Y-62242158D01*
X124480141Y-62209859D01*
X124447842Y-62161520D01*
X124436500Y-62104500D01*
X124436500Y-60389931D01*
X124421108Y-60204182D01*
X124421108Y-60204179D01*
X124360063Y-59963119D01*
X124260173Y-59735393D01*
X124124164Y-59527215D01*
X123955744Y-59344262D01*
X123759509Y-59191526D01*
X123643877Y-59128949D01*
X123540809Y-59073171D01*
X123305613Y-58992428D01*
X123101263Y-58958329D01*
X123060335Y-58951500D01*
X122811665Y-58951500D01*
X122776589Y-58957352D01*
X122566386Y-58992428D01*
X122331190Y-59073171D01*
X122112490Y-59191526D01*
X121916255Y-59344262D01*
X121747835Y-59527215D01*
X121611826Y-59735393D01*
X121511938Y-59963116D01*
X121511937Y-59963119D01*
X121505751Y-59987547D01*
X121450891Y-60204182D01*
X121435500Y-60389931D01*
X121435500Y-62889584D01*
X121434356Y-62908014D01*
X121431643Y-62929778D01*
X121435373Y-63019964D01*
X121435500Y-63026121D01*
X121435500Y-63054074D01*
X121437806Y-63081912D01*
X121438188Y-63088052D01*
X121441919Y-63178241D01*
X121446419Y-63199703D01*
X121449079Y-63217962D01*
X121450890Y-63239816D01*
X121473043Y-63327296D01*
X121474430Y-63333293D01*
X121492950Y-63421615D01*
X121500921Y-63442044D01*
X121506551Y-63459616D01*
X121511937Y-63480883D01*
X121548186Y-63563525D01*
X121550542Y-63569211D01*
X121583344Y-63653274D01*
X121594572Y-63672118D01*
X121603019Y-63688528D01*
X121611827Y-63708607D01*
X121661175Y-63784142D01*
X121664423Y-63789343D01*
X121710633Y-63866893D01*
X121724804Y-63883624D01*
X121735842Y-63898427D01*
X121747835Y-63916784D01*
X121808949Y-63983172D01*
X121813024Y-63987786D01*
X121831100Y-64009128D01*
X121850871Y-64028899D01*
X121855135Y-64033343D01*
X121916256Y-64099738D01*
X121933560Y-64113206D01*
X121947402Y-64125430D01*
X122564570Y-64742598D01*
X122576791Y-64756437D01*
X122590260Y-64773742D01*
X122656654Y-64834862D01*
X122661098Y-64839126D01*
X122680874Y-64858902D01*
X122702232Y-64876991D01*
X122706817Y-64881040D01*
X122773215Y-64942164D01*
X122791573Y-64954158D01*
X122806373Y-64965194D01*
X122823106Y-64979366D01*
X122823108Y-64979367D01*
X122900618Y-65025553D01*
X122905843Y-65028814D01*
X122981393Y-65078173D01*
X123001480Y-65086984D01*
X123017891Y-65095432D01*
X123036727Y-65106656D01*
X123120812Y-65139466D01*
X123126478Y-65141813D01*
X123209119Y-65178063D01*
X123230375Y-65183445D01*
X123247954Y-65189077D01*
X123268385Y-65197050D01*
X123299054Y-65203480D01*
X123356726Y-65215573D01*
X123362679Y-65216950D01*
X123450179Y-65239108D01*
X123472036Y-65240918D01*
X123490289Y-65243578D01*
X123511763Y-65248081D01*
X123601962Y-65251811D01*
X123608042Y-65252188D01*
X123635933Y-65254500D01*
X123663879Y-65254500D01*
X123670035Y-65254626D01*
X123760221Y-65258357D01*
X123781986Y-65255643D01*
X123800416Y-65254500D01*
X125046754Y-65254500D01*
X125103774Y-65265842D01*
X125152113Y-65298141D01*
X126725859Y-66871886D01*
X126758158Y-66920225D01*
X126769500Y-66977245D01*
X126769500Y-83898754D01*
X126758158Y-83955774D01*
X126725859Y-84004113D01*
X126549113Y-84180859D01*
X126500774Y-84213158D01*
X126443754Y-84224500D01*
X125853640Y-84224500D01*
X125780031Y-84205048D01*
X125725641Y-84151771D01*
X125704672Y-84078579D01*
X125722598Y-84004584D01*
X125782236Y-83894383D01*
X125838828Y-83789810D01*
X125919571Y-83554614D01*
X125960500Y-83309335D01*
X125960500Y-83060665D01*
X125919571Y-82815386D01*
X125838828Y-82580190D01*
X125720474Y-82361491D01*
X125567738Y-82165256D01*
X125559435Y-82157613D01*
X125427133Y-82035820D01*
X125384785Y-81996836D01*
X125384783Y-81996835D01*
X125375701Y-81988474D01*
X125376793Y-81987286D01*
X125339280Y-81947375D01*
X125319953Y-81879922D01*
X125333642Y-81811102D01*
X125377310Y-81756179D01*
X125386395Y-81749108D01*
X125438832Y-81708295D01*
X125446568Y-81699892D01*
X125600492Y-81532684D01*
X125600491Y-81532684D01*
X125600494Y-81532682D01*
X125731047Y-81332856D01*
X125826929Y-81114267D01*
X125885525Y-80882878D01*
X125905236Y-80645000D01*
X125885525Y-80407122D01*
X125826929Y-80175733D01*
X125731047Y-79957144D01*
X125600494Y-79757318D01*
X125600493Y-79757317D01*
X125600492Y-79757315D01*
X125438833Y-79581704D01*
X125324327Y-79492582D01*
X125281984Y-79440441D01*
X125266844Y-79375000D01*
X125281984Y-79309559D01*
X125324327Y-79257418D01*
X125438833Y-79168295D01*
X125600492Y-78992684D01*
X125600491Y-78992684D01*
X125600494Y-78992682D01*
X125731047Y-78792856D01*
X125826929Y-78574267D01*
X125885525Y-78342878D01*
X125905236Y-78105000D01*
X125885525Y-77867122D01*
X125826929Y-77635733D01*
X125731047Y-77417144D01*
X125600494Y-77217318D01*
X125600493Y-77217317D01*
X125600492Y-77217315D01*
X125438836Y-77041708D01*
X125430463Y-77035191D01*
X125323913Y-76952261D01*
X125281574Y-76900123D01*
X125266434Y-76834682D01*
X125281574Y-76769242D01*
X125286039Y-76763742D01*
X125287159Y-76745712D01*
X124460000Y-75918553D01*
X123632840Y-76745711D01*
X123633959Y-76763744D01*
X123638424Y-76769242D01*
X123653563Y-76834682D01*
X123638423Y-76900122D01*
X123596081Y-76952264D01*
X123481164Y-77041707D01*
X123319507Y-77217315D01*
X123188952Y-77417144D01*
X123093072Y-77635730D01*
X123034474Y-77867125D01*
X123014763Y-78105000D01*
X123034474Y-78342874D01*
X123034474Y-78342877D01*
X123034475Y-78342878D01*
X123079075Y-78519000D01*
X123093072Y-78574269D01*
X123188952Y-78792855D01*
X123319507Y-78992684D01*
X123481163Y-79168291D01*
X123481167Y-79168294D01*
X123481168Y-79168295D01*
X123595675Y-79257419D01*
X123638016Y-79309558D01*
X123653156Y-79374998D01*
X123638016Y-79440439D01*
X123595674Y-79492581D01*
X123481164Y-79581707D01*
X123319507Y-79757315D01*
X123188952Y-79957144D01*
X123093072Y-80175730D01*
X123034474Y-80407125D01*
X123014763Y-80644999D01*
X123034474Y-80882874D01*
X123034474Y-80882877D01*
X123034475Y-80882878D01*
X123093071Y-81114267D01*
X123188953Y-81332856D01*
X123268105Y-81454007D01*
X123290719Y-81513408D01*
X123286518Y-81576833D01*
X123256266Y-81632735D01*
X123205467Y-81670942D01*
X123143366Y-81684500D01*
X122022416Y-81684500D01*
X122003986Y-81683356D01*
X121982221Y-81680643D01*
X121892036Y-81684373D01*
X121885879Y-81684500D01*
X121857926Y-81684500D01*
X121830087Y-81686806D01*
X121823947Y-81687188D01*
X121733758Y-81690919D01*
X121712296Y-81695419D01*
X121694038Y-81698079D01*
X121672181Y-81699891D01*
X121584684Y-81722047D01*
X121578689Y-81723434D01*
X121490389Y-81741950D01*
X121490386Y-81741950D01*
X121490386Y-81741951D01*
X121469955Y-81749922D01*
X121452388Y-81755550D01*
X121431117Y-81760937D01*
X121348489Y-81797180D01*
X121342804Y-81799535D01*
X121258724Y-81832344D01*
X121239881Y-81843572D01*
X121223472Y-81852019D01*
X121203393Y-81860827D01*
X121127842Y-81910185D01*
X121122622Y-81913443D01*
X121045107Y-81959632D01*
X121028374Y-81973805D01*
X121013576Y-81984839D01*
X120995217Y-81996833D01*
X120928834Y-82057943D01*
X120924222Y-82062016D01*
X120902872Y-82080099D01*
X120883094Y-82099876D01*
X120878655Y-82104135D01*
X120812259Y-82165257D01*
X120798791Y-82182561D01*
X120786571Y-82196399D01*
X117756399Y-85226571D01*
X117742561Y-85238791D01*
X117725257Y-85252259D01*
X117664135Y-85318655D01*
X117659876Y-85323094D01*
X117640099Y-85342872D01*
X117622016Y-85364222D01*
X117617943Y-85368834D01*
X117556833Y-85435217D01*
X117544839Y-85453576D01*
X117533805Y-85468374D01*
X117519632Y-85485107D01*
X117473443Y-85562622D01*
X117470185Y-85567842D01*
X117420827Y-85643393D01*
X117412019Y-85663472D01*
X117403572Y-85679881D01*
X117392344Y-85698724D01*
X117359535Y-85782804D01*
X117357180Y-85788489D01*
X117320937Y-85871117D01*
X117315550Y-85892388D01*
X117309922Y-85909955D01*
X117301951Y-85930386D01*
X117301950Y-85930389D01*
X117283434Y-86018689D01*
X117282047Y-86024684D01*
X117259891Y-86112181D01*
X117258079Y-86134038D01*
X117255419Y-86152296D01*
X117250919Y-86173758D01*
X117247188Y-86263947D01*
X117246806Y-86270087D01*
X117244500Y-86297926D01*
X117244500Y-86325879D01*
X117244373Y-86332036D01*
X117240643Y-86422221D01*
X117243356Y-86443986D01*
X117244500Y-86462416D01*
X117244500Y-112927584D01*
X117243356Y-112946014D01*
X117240643Y-112967778D01*
X117244373Y-113057964D01*
X117244500Y-113064121D01*
X117244500Y-113092074D01*
X117246806Y-113119912D01*
X117247188Y-113126052D01*
X117250919Y-113216241D01*
X117255419Y-113237703D01*
X117258079Y-113255962D01*
X117259890Y-113277816D01*
X117282043Y-113365296D01*
X117283430Y-113371293D01*
X117301950Y-113459615D01*
X117309921Y-113480044D01*
X117315551Y-113497616D01*
X117320937Y-113518883D01*
X117357186Y-113601525D01*
X117359542Y-113607211D01*
X117392344Y-113691274D01*
X117403572Y-113710118D01*
X117412019Y-113726528D01*
X117420827Y-113746607D01*
X117470175Y-113822142D01*
X117473423Y-113827343D01*
X117519633Y-113904893D01*
X117533804Y-113921624D01*
X117544842Y-113936427D01*
X117556835Y-113954784D01*
X117617949Y-114021172D01*
X117622024Y-114025786D01*
X117640100Y-114047128D01*
X117659871Y-114066899D01*
X117664135Y-114071343D01*
X117722641Y-114134898D01*
X117725256Y-114137738D01*
X117742560Y-114151206D01*
X117756402Y-114163430D01*
X120786570Y-117193598D01*
X120798791Y-117207437D01*
X120812260Y-117224742D01*
X120878654Y-117285862D01*
X120883097Y-117290125D01*
X120902874Y-117309902D01*
X120924232Y-117327991D01*
X120928815Y-117332038D01*
X120995215Y-117393164D01*
X120995217Y-117393165D01*
X121013571Y-117405157D01*
X121028375Y-117416196D01*
X121045104Y-117430365D01*
X121122634Y-117476563D01*
X121127857Y-117479824D01*
X121199425Y-117526581D01*
X121203393Y-117529173D01*
X121218180Y-117535659D01*
X121223469Y-117537979D01*
X121239885Y-117546429D01*
X121258726Y-117557656D01*
X121258729Y-117557657D01*
X121342788Y-117590457D01*
X121348478Y-117592814D01*
X121431113Y-117629061D01*
X121431116Y-117629061D01*
X121431119Y-117629063D01*
X121452388Y-117634449D01*
X121469952Y-117640075D01*
X121490386Y-117648049D01*
X121578744Y-117666576D01*
X121584657Y-117667944D01*
X121672179Y-117690108D01*
X121684406Y-117691121D01*
X121694024Y-117691918D01*
X121712294Y-117694579D01*
X121733763Y-117699081D01*
X121823962Y-117702811D01*
X121830042Y-117703188D01*
X121857933Y-117705500D01*
X121885879Y-117705500D01*
X121892035Y-117705626D01*
X121982221Y-117709357D01*
X122002690Y-117706805D01*
X122003986Y-117706644D01*
X122022416Y-117705500D01*
X130761754Y-117705500D01*
X130818774Y-117716842D01*
X130867113Y-117749141D01*
X131805859Y-118687887D01*
X131838158Y-118736226D01*
X131849500Y-118793246D01*
X131849500Y-122452584D01*
X131848356Y-122471014D01*
X131845643Y-122492778D01*
X131849373Y-122582964D01*
X131849500Y-122589121D01*
X131849500Y-122617074D01*
X131851806Y-122644912D01*
X131852188Y-122651052D01*
X131855919Y-122741241D01*
X131860419Y-122762703D01*
X131863079Y-122780962D01*
X131864890Y-122802816D01*
X131887043Y-122890296D01*
X131888430Y-122896293D01*
X131906950Y-122984615D01*
X131914921Y-123005044D01*
X131920551Y-123022616D01*
X131925937Y-123043883D01*
X131962186Y-123126525D01*
X131964542Y-123132211D01*
X131997344Y-123216274D01*
X132008572Y-123235118D01*
X132017019Y-123251528D01*
X132025827Y-123271607D01*
X132075175Y-123347142D01*
X132078423Y-123352343D01*
X132124633Y-123429893D01*
X132138804Y-123446624D01*
X132149842Y-123461427D01*
X132161835Y-123479784D01*
X132222949Y-123546172D01*
X132227024Y-123550786D01*
X132245100Y-123572128D01*
X132264871Y-123591899D01*
X132269135Y-123596343D01*
X132330256Y-123662738D01*
X132347560Y-123676206D01*
X132361402Y-123688430D01*
X134121570Y-125448598D01*
X134133791Y-125462437D01*
X134147260Y-125479742D01*
X134213654Y-125540862D01*
X134218097Y-125545125D01*
X134237874Y-125564902D01*
X134259232Y-125582991D01*
X134263815Y-125587038D01*
X134330213Y-125648162D01*
X134330215Y-125648164D01*
X134348573Y-125660158D01*
X134363373Y-125671194D01*
X134368078Y-125675179D01*
X134380106Y-125685366D01*
X134380108Y-125685367D01*
X134457618Y-125731553D01*
X134462843Y-125734814D01*
X134538393Y-125784173D01*
X134558480Y-125792984D01*
X134574885Y-125801429D01*
X134593727Y-125812656D01*
X134677809Y-125845464D01*
X134683455Y-125847802D01*
X134766119Y-125884063D01*
X134787384Y-125889447D01*
X134804952Y-125895075D01*
X134825386Y-125903049D01*
X134913744Y-125921576D01*
X134919657Y-125922944D01*
X135007179Y-125945108D01*
X135019406Y-125946121D01*
X135029024Y-125946918D01*
X135047294Y-125949579D01*
X135068763Y-125954081D01*
X135158962Y-125957811D01*
X135165042Y-125958188D01*
X135192933Y-125960500D01*
X135220879Y-125960500D01*
X135227035Y-125960626D01*
X135317221Y-125964357D01*
X135338986Y-125961643D01*
X135357416Y-125960500D01*
X149757584Y-125960500D01*
X149776013Y-125961643D01*
X149797779Y-125964357D01*
X149887964Y-125960626D01*
X149894121Y-125960500D01*
X149922061Y-125960500D01*
X149922067Y-125960500D01*
X149949962Y-125958187D01*
X149956033Y-125957811D01*
X150046237Y-125954081D01*
X150067703Y-125949579D01*
X150085976Y-125946918D01*
X150092809Y-125946351D01*
X150107821Y-125945108D01*
X150195363Y-125922938D01*
X150201253Y-125921576D01*
X150289614Y-125903049D01*
X150310048Y-125895075D01*
X150327613Y-125889448D01*
X150348881Y-125884063D01*
X150431528Y-125847810D01*
X150437194Y-125845463D01*
X150521274Y-125812656D01*
X150540104Y-125801434D01*
X150556531Y-125792978D01*
X150576607Y-125784173D01*
X150576611Y-125784171D01*
X150652161Y-125734811D01*
X150657344Y-125731575D01*
X150734894Y-125685366D01*
X150751624Y-125671196D01*
X150766424Y-125660158D01*
X150784785Y-125648164D01*
X150851188Y-125587033D01*
X150855749Y-125583005D01*
X150877126Y-125564902D01*
X150896922Y-125545104D01*
X150901317Y-125540887D01*
X150967738Y-125479744D01*
X150981213Y-125462430D01*
X150993420Y-125448606D01*
X159484600Y-116957425D01*
X159498426Y-116945216D01*
X159515744Y-116931738D01*
X159576899Y-116865304D01*
X159581115Y-116860910D01*
X159600901Y-116841126D01*
X159618982Y-116819776D01*
X159623029Y-116815193D01*
X159684164Y-116748785D01*
X159696158Y-116730424D01*
X159707192Y-116715628D01*
X159721366Y-116698894D01*
X159767564Y-116621362D01*
X159770797Y-116616180D01*
X159820173Y-116540607D01*
X159828982Y-116520523D01*
X159837432Y-116504108D01*
X159848655Y-116485274D01*
X159881468Y-116401179D01*
X159883791Y-116395569D01*
X159920063Y-116312881D01*
X159925448Y-116291613D01*
X159931075Y-116274048D01*
X159939049Y-116253614D01*
X159957563Y-116165313D01*
X159958950Y-116159318D01*
X159981108Y-116071821D01*
X159982919Y-116049955D01*
X159985581Y-116031688D01*
X159990079Y-116010240D01*
X159990080Y-116010237D01*
X159993810Y-115920034D01*
X159994186Y-115913985D01*
X159996500Y-115886067D01*
X159996500Y-115858113D01*
X159996627Y-115851956D01*
X159996677Y-115850740D01*
X160000357Y-115761779D01*
X159997644Y-115740014D01*
X159996500Y-115721584D01*
X159996500Y-93082545D01*
X160010058Y-93020445D01*
X160048265Y-92969646D01*
X160104167Y-92939393D01*
X160167591Y-92935192D01*
X160226995Y-92957807D01*
X160318375Y-93017508D01*
X160319393Y-93018173D01*
X160547119Y-93118063D01*
X160788179Y-93179108D01*
X160896467Y-93188081D01*
X160973931Y-93194500D01*
X160973933Y-93194500D01*
X164489584Y-93194500D01*
X164508013Y-93195643D01*
X164529779Y-93198357D01*
X164619964Y-93194626D01*
X164626121Y-93194500D01*
X164654061Y-93194500D01*
X164654067Y-93194500D01*
X164681962Y-93192187D01*
X164688033Y-93191811D01*
X164778237Y-93188081D01*
X164799703Y-93183579D01*
X164817976Y-93180918D01*
X164824809Y-93180351D01*
X164839821Y-93179108D01*
X164927363Y-93156938D01*
X164933253Y-93155576D01*
X165021614Y-93137049D01*
X165042048Y-93129075D01*
X165059613Y-93123448D01*
X165080881Y-93118063D01*
X165163528Y-93081810D01*
X165169194Y-93079463D01*
X165253274Y-93046656D01*
X165272104Y-93035434D01*
X165288531Y-93026978D01*
X165308607Y-93018173D01*
X165309624Y-93017509D01*
X165384161Y-92968811D01*
X165389344Y-92965575D01*
X165466894Y-92919366D01*
X165483624Y-92905196D01*
X165498424Y-92894158D01*
X165516785Y-92882164D01*
X165583188Y-92821033D01*
X165587749Y-92817005D01*
X165609126Y-92798902D01*
X165628922Y-92779104D01*
X165633317Y-92774887D01*
X165699738Y-92713744D01*
X165713213Y-92696430D01*
X165725420Y-92682606D01*
X166596606Y-91811420D01*
X166610430Y-91799213D01*
X166627744Y-91785738D01*
X166688887Y-91719317D01*
X166693104Y-91714922D01*
X166712902Y-91695126D01*
X166731005Y-91673749D01*
X166735033Y-91669188D01*
X166796164Y-91602785D01*
X166808158Y-91584424D01*
X166819196Y-91569624D01*
X166833364Y-91552896D01*
X166833366Y-91552894D01*
X166879575Y-91475344D01*
X166882811Y-91470161D01*
X166932172Y-91394609D01*
X166940976Y-91374536D01*
X166949435Y-91358104D01*
X166960655Y-91339275D01*
X166960656Y-91339274D01*
X166993463Y-91255194D01*
X166995814Y-91249519D01*
X166997131Y-91246516D01*
X167032063Y-91166881D01*
X167037448Y-91145613D01*
X167043075Y-91128048D01*
X167051049Y-91107614D01*
X167069576Y-91019253D01*
X167070938Y-91013363D01*
X167093108Y-90925821D01*
X167094918Y-90903976D01*
X167097579Y-90885703D01*
X167102081Y-90864237D01*
X167105811Y-90774033D01*
X167106187Y-90767962D01*
X167108500Y-90740067D01*
X167108500Y-90712121D01*
X167108627Y-90705964D01*
X167110924Y-90650415D01*
X167112357Y-90615779D01*
X167109643Y-90594013D01*
X167108500Y-90575584D01*
X167108500Y-71730416D01*
X167109644Y-71711986D01*
X167111773Y-71694903D01*
X167112357Y-71690221D01*
X167108627Y-71600044D01*
X167108500Y-71593887D01*
X167108500Y-71565939D01*
X167107915Y-71558876D01*
X167106186Y-71538019D01*
X167105810Y-71531961D01*
X167102080Y-71441763D01*
X167097579Y-71420303D01*
X167094919Y-71402044D01*
X167093108Y-71380179D01*
X167070950Y-71292679D01*
X167069564Y-71286686D01*
X167067981Y-71279138D01*
X167071723Y-71203689D01*
X167111987Y-71139772D01*
X167178423Y-71103817D01*
X167253955Y-71105065D01*
X167319167Y-71143195D01*
X167586359Y-71410387D01*
X167618658Y-71458726D01*
X167630000Y-71515746D01*
X167630000Y-80580569D01*
X167645391Y-80766317D01*
X167645391Y-80766320D01*
X167645392Y-80766321D01*
X167691429Y-80948117D01*
X167706438Y-81007383D01*
X167806326Y-81235106D01*
X167942335Y-81443284D01*
X168065275Y-81576833D01*
X168110756Y-81626238D01*
X168306991Y-81778974D01*
X168525690Y-81897328D01*
X168760886Y-81978071D01*
X169006165Y-82019000D01*
X169254834Y-82019000D01*
X169254835Y-82019000D01*
X169500114Y-81978071D01*
X169735310Y-81897328D01*
X169954009Y-81778974D01*
X170150244Y-81626238D01*
X170318664Y-81443285D01*
X170454673Y-81235107D01*
X170554563Y-81007381D01*
X170615608Y-80766321D01*
X170629403Y-80599836D01*
X170631000Y-80580569D01*
X170631000Y-71218853D01*
X170637194Y-71176339D01*
X170637598Y-71174981D01*
X170641986Y-71139772D01*
X170644539Y-71119286D01*
X170646564Y-71107155D01*
X170658080Y-71052237D01*
X170660398Y-70996174D01*
X170661413Y-70983917D01*
X170668357Y-70928221D01*
X170666037Y-70872139D01*
X170666037Y-70859859D01*
X170668357Y-70803779D01*
X170661414Y-70748085D01*
X170660398Y-70735817D01*
X170659863Y-70722874D01*
X170658080Y-70679763D01*
X170648600Y-70634552D01*
X170646566Y-70624849D01*
X170644538Y-70612699D01*
X170637598Y-70557020D01*
X170621586Y-70503236D01*
X170618563Y-70491299D01*
X170617242Y-70484999D01*
X170607049Y-70436386D01*
X170586653Y-70384117D01*
X170582656Y-70372472D01*
X170566644Y-70318687D01*
X170541998Y-70268274D01*
X170537051Y-70256995D01*
X170516658Y-70204731D01*
X170516657Y-70204730D01*
X170516656Y-70204726D01*
X170487924Y-70156509D01*
X170482074Y-70145697D01*
X170457429Y-70095284D01*
X170424825Y-70049619D01*
X170418090Y-70039310D01*
X170389365Y-69991104D01*
X170353093Y-69948278D01*
X170345528Y-69938559D01*
X170312932Y-69892905D01*
X170273685Y-69853658D01*
X170273681Y-69853653D01*
X168351760Y-67931732D01*
X168316192Y-67874753D01*
X168309263Y-67807943D01*
X168332381Y-67744878D01*
X168380848Y-67698374D01*
X168444815Y-67677882D01*
X168511282Y-67687566D01*
X168700886Y-67761550D01*
X168893230Y-67801880D01*
X168944262Y-67812581D01*
X168954538Y-67813005D01*
X169192721Y-67822857D01*
X169439481Y-67792099D01*
X169677814Y-67721144D01*
X169901216Y-67611929D01*
X170103596Y-67467432D01*
X170279432Y-67291596D01*
X170423929Y-67089216D01*
X170533144Y-66865814D01*
X170604099Y-66627481D01*
X170634857Y-66380721D01*
X170624581Y-66132263D01*
X170622566Y-66122655D01*
X170606244Y-66044811D01*
X170573550Y-65888886D01*
X170483156Y-65657227D01*
X170355866Y-65443606D01*
X170235402Y-65301375D01*
X169946141Y-65012113D01*
X169913842Y-64963775D01*
X169902500Y-64906755D01*
X169902500Y-62421931D01*
X169891654Y-62291043D01*
X169887108Y-62236179D01*
X169826063Y-61995119D01*
X169726173Y-61767393D01*
X169590164Y-61559215D01*
X169421744Y-61376262D01*
X169225509Y-61223526D01*
X169070450Y-61139612D01*
X169006809Y-61105171D01*
X168771613Y-61024428D01*
X168567262Y-60990329D01*
X168526335Y-60983500D01*
X168277665Y-60983500D01*
X168242589Y-60989352D01*
X168032386Y-61024428D01*
X167797190Y-61105171D01*
X167578490Y-61223526D01*
X167382255Y-61376262D01*
X167241623Y-61529030D01*
X167191853Y-61564565D01*
X167132000Y-61577115D01*
X167072147Y-61564565D01*
X167022377Y-61529030D01*
X166881744Y-61376262D01*
X166685509Y-61223526D01*
X166466809Y-61105171D01*
X166231613Y-61024428D01*
X166027262Y-60990329D01*
X165986335Y-60983500D01*
X165737665Y-60983500D01*
X165702589Y-60989352D01*
X165492386Y-61024428D01*
X165257190Y-61105171D01*
X165038490Y-61223526D01*
X164842256Y-61376261D01*
X164827124Y-61392700D01*
X164768205Y-61431893D01*
X164697849Y-61439484D01*
X164631926Y-61413762D01*
X164585304Y-61360526D01*
X164568500Y-61291786D01*
X164568500Y-61081146D01*
X164569644Y-61062716D01*
X164572357Y-61040951D01*
X164568626Y-60950765D01*
X164568500Y-60944609D01*
X164568500Y-60916668D01*
X164568500Y-60916663D01*
X164566188Y-60888772D01*
X164565811Y-60882692D01*
X164562081Y-60792493D01*
X164557579Y-60771024D01*
X164554918Y-60752754D01*
X164553108Y-60730911D01*
X164553108Y-60730909D01*
X164530944Y-60643387D01*
X164529576Y-60637474D01*
X164511049Y-60549116D01*
X164503075Y-60528682D01*
X164497447Y-60511114D01*
X164492063Y-60489849D01*
X164455802Y-60407185D01*
X164453464Y-60401539D01*
X164420656Y-60317457D01*
X164409429Y-60298615D01*
X164400984Y-60282210D01*
X164392173Y-60262123D01*
X164342814Y-60186573D01*
X164339553Y-60181348D01*
X164293367Y-60103838D01*
X164293366Y-60103836D01*
X164279194Y-60087103D01*
X164268158Y-60072303D01*
X164256164Y-60053945D01*
X164195040Y-59987547D01*
X164190991Y-59982962D01*
X164172902Y-59961604D01*
X164153125Y-59941827D01*
X164148862Y-59937384D01*
X164087742Y-59870990D01*
X164070437Y-59857521D01*
X164056598Y-59845300D01*
X161388700Y-57177402D01*
X161376476Y-57163560D01*
X161363008Y-57146256D01*
X161296613Y-57085135D01*
X161292169Y-57080871D01*
X161272398Y-57061100D01*
X161251056Y-57043024D01*
X161246445Y-57038952D01*
X161239554Y-57032609D01*
X161234684Y-57028126D01*
X161195490Y-56969208D01*
X161187897Y-56898852D01*
X161213620Y-56832927D01*
X161266855Y-56786304D01*
X161335596Y-56769500D01*
X171935500Y-56769500D01*
X171992520Y-56780842D01*
X172040859Y-56813141D01*
X172073158Y-56861480D01*
X172084500Y-56918500D01*
X172084500Y-126977500D01*
X172073158Y-127034520D01*
X172040859Y-127082859D01*
X171992520Y-127115158D01*
X171935500Y-127126500D01*
X116607461Y-127126500D01*
X116533116Y-127106627D01*
X116478603Y-127052310D01*
X116458462Y-126978038D01*
X116454765Y-125954081D01*
X116350451Y-97058920D01*
X116272856Y-75564999D01*
X123015264Y-75564999D01*
X123034968Y-75802792D01*
X123093546Y-76034110D01*
X123189389Y-76252612D01*
X123280057Y-76391388D01*
X124106447Y-75565000D01*
X124813553Y-75565000D01*
X125639942Y-76391389D01*
X125639942Y-76391388D01*
X125730608Y-76252617D01*
X125826453Y-76034110D01*
X125885031Y-75802792D01*
X125904735Y-75564999D01*
X125885031Y-75327207D01*
X125826453Y-75095889D01*
X125730608Y-74877383D01*
X125639942Y-74738610D01*
X124813553Y-75565000D01*
X124106447Y-75565000D01*
X123280056Y-74738609D01*
X123189391Y-74877384D01*
X123093546Y-75095889D01*
X123034968Y-75327207D01*
X123015264Y-75564999D01*
X116272856Y-75564999D01*
X116263686Y-73025000D01*
X123014763Y-73025000D01*
X123034474Y-73262874D01*
X123034474Y-73262877D01*
X123034475Y-73262878D01*
X123081694Y-73449342D01*
X123093072Y-73494269D01*
X123188952Y-73712855D01*
X123319507Y-73912684D01*
X123481166Y-74088295D01*
X123596079Y-74177734D01*
X123638422Y-74229874D01*
X123653562Y-74295313D01*
X123638424Y-74360753D01*
X123633960Y-74366249D01*
X123632840Y-74384287D01*
X124459999Y-75211446D01*
X125287158Y-74384286D01*
X125286039Y-74366253D01*
X125281575Y-74360756D01*
X125266436Y-74295316D01*
X125281576Y-74229876D01*
X125323917Y-74177736D01*
X125438832Y-74088295D01*
X125469245Y-74055258D01*
X125600492Y-73912684D01*
X125600491Y-73912684D01*
X125600494Y-73912682D01*
X125731047Y-73712856D01*
X125826929Y-73494267D01*
X125885525Y-73262878D01*
X125905236Y-73025000D01*
X125885525Y-72787122D01*
X125826929Y-72555733D01*
X125731047Y-72337144D01*
X125600494Y-72137318D01*
X125600493Y-72137317D01*
X125600492Y-72137315D01*
X125438833Y-71961704D01*
X125324327Y-71872582D01*
X125281984Y-71820441D01*
X125266844Y-71755000D01*
X125281984Y-71689559D01*
X125324327Y-71637418D01*
X125438833Y-71548295D01*
X125578328Y-71396760D01*
X125600494Y-71372682D01*
X125731047Y-71172856D01*
X125826929Y-70954267D01*
X125885525Y-70722878D01*
X125905236Y-70485000D01*
X125885525Y-70247122D01*
X125826929Y-70015733D01*
X125731047Y-69797144D01*
X125600494Y-69597318D01*
X125600493Y-69597317D01*
X125600492Y-69597315D01*
X125438833Y-69421704D01*
X125324327Y-69332582D01*
X125281984Y-69280441D01*
X125266844Y-69215000D01*
X125281984Y-69149559D01*
X125324327Y-69097418D01*
X125438833Y-69008295D01*
X125600492Y-68832684D01*
X125600491Y-68832684D01*
X125600494Y-68832682D01*
X125731047Y-68632856D01*
X125826929Y-68414267D01*
X125885525Y-68182878D01*
X125905236Y-67945000D01*
X125885525Y-67707122D01*
X125826929Y-67475733D01*
X125731047Y-67257144D01*
X125600494Y-67057318D01*
X125600493Y-67057317D01*
X125600492Y-67057315D01*
X125438833Y-66881704D01*
X125250470Y-66735097D01*
X125040546Y-66621491D01*
X124814784Y-66543987D01*
X124613015Y-66510318D01*
X124579347Y-66504700D01*
X124340653Y-66504700D01*
X124311196Y-66509615D01*
X124105215Y-66543987D01*
X123879453Y-66621491D01*
X123669529Y-66735097D01*
X123481166Y-66881704D01*
X123319507Y-67057315D01*
X123188952Y-67257144D01*
X123093072Y-67475730D01*
X123034474Y-67707125D01*
X123014763Y-67944999D01*
X123034474Y-68182874D01*
X123034474Y-68182877D01*
X123034475Y-68182878D01*
X123089143Y-68398756D01*
X123093072Y-68414269D01*
X123188952Y-68632855D01*
X123319507Y-68832684D01*
X123481164Y-69008292D01*
X123595673Y-69097418D01*
X123638015Y-69149560D01*
X123653155Y-69215000D01*
X123638015Y-69280440D01*
X123595673Y-69332582D01*
X123481164Y-69421707D01*
X123319507Y-69597315D01*
X123188952Y-69797144D01*
X123094364Y-70012785D01*
X123093071Y-70015733D01*
X123070433Y-70105128D01*
X123034474Y-70247125D01*
X123014763Y-70485000D01*
X123034474Y-70722874D01*
X123034474Y-70722877D01*
X123034475Y-70722878D01*
X123093031Y-70954110D01*
X123093072Y-70954269D01*
X123188952Y-71172855D01*
X123319507Y-71372684D01*
X123481164Y-71548292D01*
X123595673Y-71637418D01*
X123638015Y-71689560D01*
X123653155Y-71755000D01*
X123638015Y-71820440D01*
X123595673Y-71872582D01*
X123481164Y-71961707D01*
X123319507Y-72137315D01*
X123188952Y-72337144D01*
X123093072Y-72555730D01*
X123034474Y-72787125D01*
X123014763Y-73025000D01*
X116263686Y-73025000D01*
X116205542Y-56919038D01*
X116216729Y-56861853D01*
X116248992Y-56813331D01*
X116297397Y-56780893D01*
X116354541Y-56769500D01*
X146747674Y-56769500D01*
X146816415Y-56786305D01*
G37*
%TD.AperFunction*%
%TA.AperFunction,Conductor*%
G36*
X138379969Y-89784952D02*
G01*
X138434359Y-89838229D01*
X138455328Y-89911421D01*
X138437402Y-89985416D01*
X138321171Y-90200190D01*
X138240428Y-90435386D01*
X138210327Y-90615779D01*
X138200570Y-90674256D01*
X138199500Y-90680666D01*
X138199500Y-90929334D01*
X138240428Y-91174613D01*
X138321171Y-91409809D01*
X138439526Y-91628509D01*
X138592264Y-91824747D01*
X138745029Y-91965376D01*
X138780565Y-92015146D01*
X138793115Y-92074999D01*
X138780565Y-92134851D01*
X138745030Y-92184622D01*
X138592262Y-92325255D01*
X138439526Y-92521490D01*
X138321171Y-92740190D01*
X138240428Y-92975386D01*
X138210257Y-93156198D01*
X138199500Y-93220665D01*
X138199500Y-93469335D01*
X138199757Y-93470875D01*
X138240428Y-93714613D01*
X138321171Y-93949809D01*
X138439526Y-94168509D01*
X138592262Y-94364744D01*
X138745030Y-94505377D01*
X138780565Y-94555147D01*
X138793115Y-94615000D01*
X138780565Y-94674853D01*
X138745030Y-94724623D01*
X138592262Y-94865255D01*
X138439526Y-95061490D01*
X138321171Y-95280190D01*
X138240428Y-95515386D01*
X138199500Y-95760666D01*
X138199500Y-96009334D01*
X138240428Y-96254613D01*
X138321171Y-96489809D01*
X138414958Y-96663111D01*
X138439526Y-96708509D01*
X138592262Y-96904744D01*
X138775215Y-97073164D01*
X138983393Y-97209173D01*
X139211119Y-97309063D01*
X139452179Y-97370108D01*
X139563631Y-97379343D01*
X139637931Y-97385500D01*
X139637933Y-97385500D01*
X140921754Y-97385500D01*
X140978774Y-97396842D01*
X141027113Y-97429141D01*
X141330859Y-97732887D01*
X141363158Y-97781226D01*
X141374500Y-97838246D01*
X141374500Y-101896721D01*
X141361639Y-101957278D01*
X141325277Y-102007381D01*
X141271690Y-102038381D01*
X141210130Y-102044926D01*
X141197441Y-102043610D01*
X140371053Y-102870000D01*
X141197441Y-103696388D01*
X141210130Y-103695073D01*
X141271690Y-103701618D01*
X141325277Y-103732618D01*
X141361639Y-103782721D01*
X141374500Y-103843278D01*
X141374500Y-104280032D01*
X141358815Y-104346577D01*
X141315061Y-104399111D01*
X141252451Y-104426574D01*
X141184167Y-104423184D01*
X141124585Y-104389655D01*
X140942284Y-104221835D01*
X140910846Y-104201296D01*
X140872893Y-104165626D01*
X140849536Y-104119074D01*
X140843627Y-104067326D01*
X140844658Y-104050711D01*
X138837556Y-102043609D01*
X138746891Y-102182384D01*
X138651046Y-102400889D01*
X138592468Y-102632207D01*
X138572764Y-102870000D01*
X138592468Y-103107792D01*
X138651046Y-103339110D01*
X138746891Y-103557615D01*
X138826199Y-103679005D01*
X138848814Y-103738409D01*
X138844613Y-103801833D01*
X138814361Y-103857735D01*
X138763562Y-103895942D01*
X138701461Y-103909500D01*
X135303246Y-103909500D01*
X135246226Y-103898158D01*
X135197887Y-103865859D01*
X133021315Y-101689287D01*
X139190340Y-101689287D01*
X140017499Y-102516446D01*
X140844658Y-101689286D01*
X140807695Y-101660516D01*
X140597841Y-101546949D01*
X140372160Y-101469474D01*
X140136804Y-101430200D01*
X139898196Y-101430200D01*
X139662839Y-101469474D01*
X139437158Y-101546949D01*
X139227304Y-101660516D01*
X139190340Y-101689286D01*
X139190340Y-101689287D01*
X133021315Y-101689287D01*
X132989141Y-101657113D01*
X132956842Y-101608774D01*
X132945500Y-101551754D01*
X132945500Y-95987416D01*
X132946644Y-95968986D01*
X132946826Y-95967518D01*
X132949357Y-95947221D01*
X132945627Y-95857044D01*
X132945500Y-95850887D01*
X132945500Y-95822939D01*
X132945500Y-95822933D01*
X132943186Y-95795019D01*
X132942810Y-95788961D01*
X132939080Y-95698763D01*
X132934579Y-95677303D01*
X132931919Y-95659044D01*
X132930108Y-95637179D01*
X132907950Y-95549679D01*
X132906562Y-95543679D01*
X132888049Y-95455387D01*
X132888049Y-95455386D01*
X132880075Y-95434952D01*
X132874447Y-95417384D01*
X132869063Y-95396119D01*
X132832786Y-95313417D01*
X132830473Y-95307832D01*
X132797655Y-95223726D01*
X132786430Y-95204888D01*
X132777983Y-95188476D01*
X132769174Y-95168395D01*
X132719812Y-95092840D01*
X132716567Y-95087642D01*
X132670366Y-95010106D01*
X132670365Y-95010105D01*
X132670364Y-95010103D01*
X132656194Y-94993373D01*
X132645158Y-94978573D01*
X132633164Y-94960215D01*
X132572038Y-94893814D01*
X132567963Y-94889199D01*
X132549903Y-94867876D01*
X132530137Y-94848110D01*
X132525873Y-94843666D01*
X132464742Y-94777260D01*
X132447432Y-94763787D01*
X132433593Y-94751566D01*
X131318739Y-93636712D01*
X134300840Y-93636712D01*
X134337802Y-93665482D01*
X134547658Y-93779050D01*
X134773339Y-93856525D01*
X135008696Y-93895800D01*
X135247304Y-93895800D01*
X135482660Y-93856525D01*
X135708341Y-93779050D01*
X135918193Y-93665483D01*
X135955158Y-93636711D01*
X135128000Y-92809553D01*
X134300840Y-93636711D01*
X134300840Y-93636712D01*
X131318739Y-93636712D01*
X130138028Y-92456000D01*
X133683264Y-92456000D01*
X133702968Y-92693792D01*
X133761546Y-92925110D01*
X133857389Y-93143612D01*
X133948057Y-93282388D01*
X134774447Y-92456000D01*
X135481553Y-92456000D01*
X136307942Y-93282389D01*
X136307942Y-93282388D01*
X136398608Y-93143617D01*
X136494453Y-92925110D01*
X136553031Y-92693792D01*
X136572735Y-92456000D01*
X136553031Y-92218207D01*
X136494453Y-91986889D01*
X136398608Y-91768383D01*
X136307942Y-91629610D01*
X135481553Y-92456000D01*
X134774447Y-92456000D01*
X133948056Y-91629609D01*
X133857391Y-91768384D01*
X133761546Y-91986889D01*
X133702968Y-92218207D01*
X133683264Y-92456000D01*
X130138028Y-92456000D01*
X130038430Y-92356402D01*
X130026206Y-92342560D01*
X130012736Y-92325254D01*
X129946343Y-92264135D01*
X129941899Y-92259871D01*
X129922128Y-92240100D01*
X129900786Y-92222024D01*
X129896172Y-92217949D01*
X129829784Y-92156835D01*
X129811427Y-92144842D01*
X129796624Y-92133804D01*
X129779893Y-92119633D01*
X129702343Y-92073423D01*
X129697142Y-92070175D01*
X129621607Y-92020827D01*
X129601528Y-92012019D01*
X129585118Y-92003572D01*
X129566274Y-91992344D01*
X129497162Y-91965376D01*
X129482211Y-91959542D01*
X129476525Y-91957186D01*
X129393883Y-91920937D01*
X129372616Y-91915551D01*
X129355044Y-91909921D01*
X129334615Y-91901950D01*
X129246293Y-91883430D01*
X129240296Y-91882043D01*
X129152816Y-91859890D01*
X129130962Y-91858079D01*
X129112703Y-91855419D01*
X129091241Y-91850919D01*
X129001052Y-91847188D01*
X128994912Y-91846806D01*
X128967074Y-91844500D01*
X128967067Y-91844500D01*
X128939121Y-91844500D01*
X128932964Y-91844373D01*
X128842779Y-91840643D01*
X128842778Y-91840643D01*
X128821014Y-91843356D01*
X128802584Y-91844500D01*
X125776634Y-91844500D01*
X125714533Y-91830942D01*
X125663734Y-91792735D01*
X125633482Y-91736833D01*
X125629281Y-91673408D01*
X125651894Y-91614007D01*
X125731047Y-91492856D01*
X125826482Y-91275287D01*
X134300840Y-91275287D01*
X135127999Y-92102446D01*
X135955158Y-91275286D01*
X135918195Y-91246516D01*
X135708341Y-91132949D01*
X135482660Y-91055474D01*
X135247304Y-91016200D01*
X135008696Y-91016200D01*
X134773339Y-91055474D01*
X134547658Y-91132949D01*
X134337804Y-91246516D01*
X134300840Y-91275286D01*
X134300840Y-91275287D01*
X125826482Y-91275287D01*
X125826929Y-91274267D01*
X125885525Y-91042878D01*
X125905236Y-90805000D01*
X125903820Y-90787917D01*
X125899855Y-90740061D01*
X125885525Y-90567122D01*
X125826929Y-90335733D01*
X125731047Y-90117144D01*
X125651894Y-89995992D01*
X125629281Y-89936592D01*
X125633482Y-89873167D01*
X125663734Y-89817265D01*
X125714533Y-89779058D01*
X125776634Y-89765500D01*
X138306360Y-89765500D01*
X138379969Y-89784952D01*
G37*
%TD.AperFunction*%
%TD*%
%TA.AperFunction,NonConductor*%
G36*
X123139969Y-84704952D02*
G01*
X123194359Y-84758229D01*
X123215328Y-84831421D01*
X123197402Y-84905416D01*
X123081171Y-85120190D01*
X123000428Y-85355386D01*
X122959500Y-85600666D01*
X122959500Y-85849334D01*
X123000428Y-86094613D01*
X123081171Y-86329809D01*
X123197402Y-86544584D01*
X123215328Y-86618579D01*
X123194359Y-86691771D01*
X123139969Y-86745048D01*
X123066360Y-86764500D01*
X122657416Y-86764500D01*
X122638986Y-86763356D01*
X122617221Y-86760643D01*
X122527036Y-86764373D01*
X122520879Y-86764500D01*
X122492926Y-86764500D01*
X122465088Y-86766806D01*
X122458947Y-86767188D01*
X122368761Y-86770918D01*
X122347291Y-86775420D01*
X122329029Y-86778080D01*
X122326867Y-86778260D01*
X122307174Y-86779892D01*
X122219697Y-86802043D01*
X122213703Y-86803430D01*
X122125383Y-86821950D01*
X122104952Y-86829922D01*
X122087373Y-86835554D01*
X122066116Y-86840937D01*
X121983483Y-86877182D01*
X121977799Y-86879537D01*
X121893727Y-86912343D01*
X121874884Y-86923571D01*
X121858477Y-86932016D01*
X121838394Y-86940826D01*
X121762855Y-86990176D01*
X121757636Y-86993434D01*
X121680103Y-87039635D01*
X121663371Y-87053806D01*
X121648577Y-87064838D01*
X121630217Y-87076834D01*
X121563808Y-87137966D01*
X121559197Y-87142038D01*
X121537873Y-87160099D01*
X121518106Y-87179865D01*
X121513668Y-87184123D01*
X121447259Y-87245258D01*
X121433788Y-87262565D01*
X121421569Y-87276402D01*
X120931402Y-87766569D01*
X120917563Y-87778790D01*
X120900256Y-87792260D01*
X120839135Y-87858655D01*
X120834876Y-87863094D01*
X120815099Y-87882872D01*
X120797016Y-87904222D01*
X120792943Y-87908834D01*
X120731833Y-87975217D01*
X120719839Y-87993576D01*
X120708805Y-88008374D01*
X120694632Y-88025107D01*
X120648443Y-88102622D01*
X120645185Y-88107842D01*
X120595827Y-88183393D01*
X120587019Y-88203472D01*
X120578572Y-88219881D01*
X120567344Y-88238724D01*
X120534535Y-88322804D01*
X120532188Y-88328471D01*
X120530959Y-88331274D01*
X120490813Y-88385129D01*
X120431092Y-88415879D01*
X120363934Y-88417273D01*
X120302988Y-88389029D01*
X120260641Y-88336886D01*
X120245500Y-88271442D01*
X120245500Y-87043246D01*
X120256842Y-86986226D01*
X120289141Y-86937887D01*
X122497887Y-84729141D01*
X122546226Y-84696842D01*
X122603246Y-84685500D01*
X123066360Y-84685500D01*
X123139969Y-84704952D01*
G37*
%TD.AperFunction*%
%TA.AperFunction,NonConductor*%
G36*
X157374121Y-90416185D02*
G01*
X157426655Y-90459939D01*
X157454118Y-90522549D01*
X157450728Y-90590833D01*
X157417198Y-90650415D01*
X157374676Y-90696608D01*
X157299474Y-90778299D01*
X157298060Y-90776997D01*
X157262163Y-90811439D01*
X157198197Y-90831928D01*
X157131732Y-90822243D01*
X157076273Y-90784352D01*
X157064464Y-90771524D01*
X156952975Y-90650414D01*
X156919447Y-90590833D01*
X156916057Y-90522549D01*
X156943520Y-90459939D01*
X156996054Y-90416185D01*
X157062599Y-90400500D01*
X157307576Y-90400500D01*
X157374121Y-90416185D01*
G37*
%TD.AperFunction*%
%TA.AperFunction,NonConductor*%
G36*
X141315061Y-106420889D02*
G01*
X141358815Y-106473423D01*
X141374500Y-106539968D01*
X141374500Y-106820032D01*
X141358815Y-106886577D01*
X141315061Y-106939111D01*
X141252451Y-106966574D01*
X141184167Y-106963184D01*
X141124585Y-106929655D01*
X141077790Y-106886577D01*
X140972467Y-106789620D01*
X140936934Y-106739853D01*
X140924384Y-106680000D01*
X140936934Y-106620147D01*
X140972467Y-106570379D01*
X141124585Y-106430344D01*
X141184167Y-106396816D01*
X141252451Y-106393426D01*
X141315061Y-106420889D01*
G37*
%TD.AperFunction*%
%TA.AperFunction,NonConductor*%
G36*
X123650995Y-97148807D02*
G01*
X123743392Y-97209172D01*
X123743393Y-97209173D01*
X123971119Y-97309063D01*
X124212179Y-97370108D01*
X124323631Y-97379343D01*
X124397931Y-97385500D01*
X124397933Y-97385500D01*
X126316754Y-97385500D01*
X126373774Y-97396842D01*
X126422113Y-97429141D01*
X127360859Y-98367887D01*
X127393158Y-98416226D01*
X127404500Y-98473246D01*
X127404500Y-103402584D01*
X127403356Y-103421014D01*
X127400643Y-103442778D01*
X127404373Y-103532964D01*
X127404500Y-103539121D01*
X127404500Y-103567074D01*
X127406806Y-103594912D01*
X127407188Y-103601052D01*
X127410919Y-103691241D01*
X127415419Y-103712703D01*
X127418079Y-103730962D01*
X127419890Y-103752816D01*
X127442043Y-103840296D01*
X127443430Y-103846293D01*
X127461950Y-103934615D01*
X127469921Y-103955044D01*
X127475551Y-103972616D01*
X127480937Y-103993883D01*
X127517186Y-104076525D01*
X127519542Y-104082211D01*
X127552344Y-104166274D01*
X127563572Y-104185118D01*
X127572019Y-104201528D01*
X127580827Y-104221607D01*
X127630175Y-104297142D01*
X127633423Y-104302343D01*
X127679633Y-104379893D01*
X127693804Y-104396624D01*
X127704842Y-104411427D01*
X127716835Y-104429784D01*
X127777949Y-104496172D01*
X127782024Y-104500786D01*
X127800100Y-104522128D01*
X127819871Y-104541899D01*
X127824135Y-104546343D01*
X127885256Y-104612738D01*
X127902560Y-104626206D01*
X127916402Y-104638430D01*
X132216570Y-108938598D01*
X132228791Y-108952437D01*
X132242260Y-108969742D01*
X132308654Y-109030862D01*
X132313097Y-109035125D01*
X132332874Y-109054902D01*
X132354232Y-109072991D01*
X132358817Y-109077040D01*
X132425215Y-109138164D01*
X132443573Y-109150158D01*
X132458373Y-109161194D01*
X132475103Y-109175364D01*
X132475105Y-109175365D01*
X132475106Y-109175366D01*
X132552642Y-109221567D01*
X132557840Y-109224812D01*
X132633395Y-109274174D01*
X132653476Y-109282983D01*
X132669888Y-109291430D01*
X132688726Y-109302655D01*
X132772832Y-109335473D01*
X132778417Y-109337786D01*
X132861119Y-109374063D01*
X132882384Y-109379447D01*
X132899952Y-109385075D01*
X132920386Y-109393049D01*
X133008685Y-109411563D01*
X133014679Y-109412950D01*
X133102179Y-109435108D01*
X133124044Y-109436919D01*
X133142303Y-109439579D01*
X133163763Y-109444080D01*
X133253961Y-109447810D01*
X133260019Y-109448186D01*
X133287933Y-109450500D01*
X133315887Y-109450500D01*
X133322044Y-109450627D01*
X133412221Y-109454357D01*
X133432518Y-109451826D01*
X133433986Y-109451644D01*
X133452416Y-109450500D01*
X138623860Y-109450500D01*
X138697469Y-109469952D01*
X138751859Y-109523229D01*
X138772828Y-109596421D01*
X138754902Y-109670416D01*
X138638671Y-109885190D01*
X138557928Y-110120386D01*
X138517000Y-110365666D01*
X138517000Y-110614334D01*
X138557928Y-110859613D01*
X138638671Y-111094809D01*
X138754902Y-111309584D01*
X138772828Y-111383579D01*
X138751859Y-111456771D01*
X138697469Y-111510048D01*
X138623860Y-111529500D01*
X124508246Y-111529500D01*
X124451226Y-111518158D01*
X124402887Y-111485859D01*
X123464141Y-110547113D01*
X123431842Y-110498774D01*
X123420500Y-110441754D01*
X123420500Y-97273545D01*
X123434058Y-97211445D01*
X123472265Y-97160646D01*
X123528167Y-97130393D01*
X123591591Y-97126192D01*
X123650995Y-97148807D01*
G37*
%TD.AperFunction*%
%TA.AperFunction,NonConductor*%
G36*
X144153774Y-94856842D02*
G01*
X144202113Y-94889141D01*
X145140859Y-95827887D01*
X145173158Y-95876226D01*
X145184500Y-95933246D01*
X145184500Y-111711754D01*
X145173158Y-111768774D01*
X145140859Y-111817113D01*
X142932113Y-114025859D01*
X142883774Y-114058158D01*
X142826754Y-114069500D01*
X141411140Y-114069500D01*
X141337531Y-114050048D01*
X141283141Y-113996771D01*
X141262172Y-113923579D01*
X141280098Y-113849584D01*
X141361529Y-113699113D01*
X141396328Y-113634810D01*
X141477071Y-113399614D01*
X141518000Y-113154335D01*
X141518000Y-112905665D01*
X141477071Y-112660386D01*
X141396328Y-112425190D01*
X141280097Y-112210415D01*
X141262172Y-112136421D01*
X141283141Y-112063229D01*
X141337531Y-112009952D01*
X141411140Y-111990500D01*
X141502584Y-111990500D01*
X141521013Y-111991643D01*
X141542779Y-111994357D01*
X141632964Y-111990626D01*
X141639121Y-111990500D01*
X141667061Y-111990500D01*
X141667067Y-111990500D01*
X141694962Y-111988187D01*
X141701033Y-111987811D01*
X141791237Y-111984081D01*
X141812703Y-111979579D01*
X141830976Y-111976918D01*
X141837809Y-111976351D01*
X141852821Y-111975108D01*
X141940363Y-111952938D01*
X141946253Y-111951576D01*
X142034614Y-111933049D01*
X142055048Y-111925075D01*
X142072613Y-111919448D01*
X142093881Y-111914063D01*
X142176528Y-111877810D01*
X142182194Y-111875463D01*
X142266274Y-111842656D01*
X142285104Y-111831434D01*
X142301531Y-111822978D01*
X142321607Y-111814173D01*
X142335478Y-111805111D01*
X142397161Y-111764811D01*
X142402344Y-111761575D01*
X142479894Y-111715366D01*
X142487993Y-111708506D01*
X142496624Y-111701196D01*
X142511424Y-111690158D01*
X142529785Y-111678164D01*
X142596188Y-111617033D01*
X142600749Y-111613005D01*
X142622126Y-111594902D01*
X142641922Y-111575104D01*
X142646317Y-111570887D01*
X142712738Y-111509744D01*
X142726213Y-111492430D01*
X142738420Y-111478606D01*
X143863606Y-110353420D01*
X143877430Y-110341213D01*
X143894744Y-110327738D01*
X143955887Y-110261317D01*
X143960104Y-110256922D01*
X143979902Y-110237126D01*
X143998005Y-110215749D01*
X144002033Y-110211188D01*
X144063164Y-110144785D01*
X144075158Y-110126424D01*
X144086196Y-110111624D01*
X144100364Y-110094896D01*
X144100366Y-110094894D01*
X144146575Y-110017344D01*
X144149811Y-110012161D01*
X144199172Y-109936609D01*
X144207976Y-109916536D01*
X144216435Y-109900104D01*
X144227655Y-109881275D01*
X144227656Y-109881274D01*
X144260463Y-109797194D01*
X144262814Y-109791519D01*
X144299063Y-109708881D01*
X144304448Y-109687613D01*
X144310075Y-109670048D01*
X144318049Y-109649614D01*
X144336563Y-109561313D01*
X144337950Y-109555318D01*
X144360108Y-109467821D01*
X144361919Y-109445955D01*
X144364581Y-109427688D01*
X144369079Y-109406240D01*
X144369080Y-109406237D01*
X144372810Y-109316034D01*
X144373186Y-109309985D01*
X144375500Y-109282067D01*
X144375500Y-109254113D01*
X144375627Y-109247956D01*
X144376584Y-109224812D01*
X144379357Y-109157779D01*
X144376644Y-109136014D01*
X144375500Y-109117584D01*
X144375500Y-97257416D01*
X144376644Y-97238986D01*
X144376826Y-97237518D01*
X144379357Y-97217221D01*
X144375627Y-97127044D01*
X144375500Y-97120887D01*
X144375500Y-97092939D01*
X144375500Y-97092933D01*
X144373186Y-97065019D01*
X144372810Y-97058961D01*
X144369080Y-96968763D01*
X144364579Y-96947303D01*
X144361919Y-96929044D01*
X144360108Y-96907179D01*
X144337950Y-96819679D01*
X144336562Y-96813679D01*
X144318049Y-96725387D01*
X144311463Y-96708509D01*
X144310075Y-96704952D01*
X144304449Y-96687388D01*
X144299063Y-96666119D01*
X144299061Y-96666116D01*
X144299061Y-96666113D01*
X144262814Y-96583478D01*
X144260457Y-96577788D01*
X144227657Y-96493729D01*
X144227656Y-96493726D01*
X144216429Y-96474885D01*
X144207979Y-96458469D01*
X144206335Y-96454722D01*
X144199173Y-96438393D01*
X144196581Y-96434425D01*
X144149824Y-96362857D01*
X144146563Y-96357634D01*
X144100365Y-96280104D01*
X144086196Y-96263375D01*
X144075157Y-96248571D01*
X144063165Y-96230217D01*
X144063164Y-96230215D01*
X144002038Y-96163815D01*
X143997991Y-96159232D01*
X143979902Y-96137874D01*
X143960125Y-96118097D01*
X143955862Y-96113654D01*
X143894742Y-96047260D01*
X143877437Y-96033791D01*
X143863598Y-96021570D01*
X142941887Y-95099859D01*
X142905539Y-95040544D01*
X142900080Y-94971191D01*
X142926702Y-94906920D01*
X142979601Y-94861740D01*
X143047246Y-94845500D01*
X144096754Y-94845500D01*
X144153774Y-94856842D01*
G37*
%TD.AperFunction*%
%TA.AperFunction,NonConductor*%
G36*
X151823520Y-90116842D02*
G01*
X151871859Y-90149141D01*
X151904158Y-90197480D01*
X151915500Y-90254500D01*
X151915500Y-113870754D01*
X151904158Y-113927774D01*
X151871859Y-113976113D01*
X151523522Y-114324449D01*
X151465570Y-114360347D01*
X151397696Y-114366678D01*
X151334106Y-114342116D01*
X151288110Y-114291803D01*
X151269336Y-114226270D01*
X151281713Y-114159237D01*
X151284063Y-114153881D01*
X151289448Y-114132613D01*
X151295075Y-114115048D01*
X151303049Y-114094614D01*
X151321563Y-114006313D01*
X151322950Y-114000318D01*
X151345108Y-113912821D01*
X151346919Y-113890955D01*
X151349581Y-113872688D01*
X151353604Y-113853509D01*
X151354080Y-113851237D01*
X151357810Y-113761034D01*
X151358186Y-113754985D01*
X151360500Y-113727067D01*
X151360500Y-113699113D01*
X151360627Y-113692956D01*
X151360697Y-113691273D01*
X151364357Y-113602779D01*
X151361644Y-113581014D01*
X151360500Y-113562584D01*
X151360500Y-94590416D01*
X151361644Y-94571986D01*
X151364357Y-94550221D01*
X151360626Y-94460035D01*
X151360500Y-94453879D01*
X151360500Y-94425938D01*
X151360500Y-94425933D01*
X151358188Y-94398042D01*
X151357811Y-94391962D01*
X151354081Y-94301763D01*
X151349578Y-94280289D01*
X151346918Y-94262036D01*
X151345108Y-94240179D01*
X151322950Y-94152679D01*
X151321569Y-94146708D01*
X151303050Y-94058385D01*
X151295077Y-94037954D01*
X151289445Y-94020375D01*
X151284063Y-93999119D01*
X151247813Y-93916478D01*
X151245461Y-93910800D01*
X151224283Y-93856525D01*
X151212656Y-93826727D01*
X151201432Y-93807890D01*
X151192984Y-93791480D01*
X151184173Y-93771393D01*
X151177195Y-93760713D01*
X151134814Y-93695843D01*
X151131553Y-93690618D01*
X151085367Y-93613108D01*
X151085366Y-93613106D01*
X151071194Y-93596373D01*
X151060158Y-93581573D01*
X151048164Y-93563215D01*
X150987040Y-93496816D01*
X150982965Y-93492202D01*
X150964899Y-93470872D01*
X150945137Y-93451110D01*
X150940873Y-93446666D01*
X150879742Y-93380260D01*
X150862432Y-93366787D01*
X150848593Y-93354566D01*
X147853887Y-90359859D01*
X147817539Y-90300544D01*
X147812080Y-90231191D01*
X147838702Y-90166920D01*
X147891601Y-90121740D01*
X147959246Y-90105500D01*
X151766500Y-90105500D01*
X151823520Y-90116842D01*
G37*
%TD.AperFunction*%
%TA.AperFunction,NonConductor*%
G36*
X120431096Y-111609122D02*
G01*
X120490817Y-111639874D01*
X120530962Y-111693732D01*
X120532197Y-111696549D01*
X120534542Y-111702211D01*
X120539675Y-111715366D01*
X120567344Y-111786274D01*
X120578572Y-111805118D01*
X120587019Y-111821528D01*
X120595827Y-111841607D01*
X120645175Y-111917142D01*
X120648423Y-111922343D01*
X120694633Y-111999893D01*
X120708804Y-112016624D01*
X120719842Y-112031427D01*
X120731835Y-112049784D01*
X120792949Y-112116172D01*
X120797024Y-112120786D01*
X120815100Y-112142128D01*
X120834871Y-112161899D01*
X120839135Y-112166343D01*
X120900256Y-112232738D01*
X120917560Y-112246206D01*
X120931402Y-112258430D01*
X122691570Y-114018598D01*
X122703791Y-114032437D01*
X122715225Y-114047128D01*
X122717262Y-114049744D01*
X122766004Y-114094614D01*
X122783654Y-114110862D01*
X122788097Y-114115125D01*
X122807874Y-114134902D01*
X122829232Y-114152991D01*
X122833817Y-114157040D01*
X122900215Y-114218164D01*
X122918573Y-114230158D01*
X122933373Y-114241194D01*
X122950106Y-114255366D01*
X122950108Y-114255367D01*
X123027618Y-114301553D01*
X123032843Y-114304814D01*
X123108393Y-114354173D01*
X123128480Y-114362984D01*
X123144885Y-114371429D01*
X123163727Y-114382656D01*
X123247809Y-114415464D01*
X123253474Y-114417811D01*
X123256322Y-114419060D01*
X123310159Y-114459218D01*
X123340890Y-114518940D01*
X123342271Y-114586090D01*
X123314022Y-114647025D01*
X123261881Y-114689362D01*
X123196445Y-114704500D01*
X122603246Y-114704500D01*
X122546226Y-114693158D01*
X122497887Y-114660859D01*
X120289141Y-112452113D01*
X120256842Y-112403774D01*
X120245500Y-112346754D01*
X120245500Y-111753558D01*
X120260642Y-111688113D01*
X120302990Y-111635970D01*
X120363937Y-111607726D01*
X120431096Y-111609122D01*
G37*
%TD.AperFunction*%
%TA.AperFunction,NonConductor*%
G36*
X156880685Y-92869833D02*
G01*
X156939950Y-92898807D01*
X156980897Y-92950528D01*
X156995500Y-93014859D01*
X156995500Y-115140755D01*
X156984158Y-115197775D01*
X156951859Y-115246114D01*
X149282113Y-122915859D01*
X149233774Y-122948158D01*
X149176754Y-122959500D01*
X135938246Y-122959500D01*
X135881226Y-122948158D01*
X135832887Y-122915859D01*
X134894141Y-121977113D01*
X134861842Y-121928774D01*
X134850500Y-121871754D01*
X134850500Y-118212416D01*
X134851644Y-118193986D01*
X134854357Y-118172221D01*
X134850626Y-118082035D01*
X134850500Y-118075879D01*
X134850500Y-118047938D01*
X134850500Y-118047933D01*
X134848188Y-118020042D01*
X134847811Y-118013962D01*
X134844081Y-117923763D01*
X134839579Y-117902294D01*
X134836918Y-117884024D01*
X134835108Y-117862181D01*
X134835108Y-117862179D01*
X134812944Y-117774657D01*
X134811576Y-117768744D01*
X134793049Y-117680386D01*
X134785075Y-117659952D01*
X134779447Y-117642384D01*
X134774063Y-117621119D01*
X134737802Y-117538455D01*
X134735464Y-117532809D01*
X134702656Y-117448727D01*
X134691429Y-117429885D01*
X134682984Y-117413480D01*
X134674173Y-117393393D01*
X134624814Y-117317843D01*
X134621553Y-117312618D01*
X134575367Y-117235108D01*
X134575366Y-117235106D01*
X134561194Y-117218373D01*
X134550158Y-117203573D01*
X134538164Y-117185215D01*
X134477040Y-117118817D01*
X134472991Y-117114232D01*
X134454902Y-117092874D01*
X134435126Y-117073098D01*
X134430862Y-117068654D01*
X134369742Y-117002260D01*
X134352437Y-116988791D01*
X134338598Y-116976570D01*
X132578430Y-115216402D01*
X132566206Y-115202560D01*
X132552736Y-115185254D01*
X132486343Y-115124135D01*
X132481899Y-115119871D01*
X132462128Y-115100100D01*
X132440786Y-115082024D01*
X132436172Y-115077949D01*
X132369784Y-115016835D01*
X132351427Y-115004842D01*
X132336624Y-114993804D01*
X132319893Y-114979633D01*
X132242343Y-114933423D01*
X132237142Y-114930175D01*
X132161607Y-114880827D01*
X132141528Y-114872019D01*
X132125118Y-114863572D01*
X132106274Y-114852344D01*
X132053257Y-114831656D01*
X132022211Y-114819542D01*
X132016549Y-114817197D01*
X132013732Y-114815962D01*
X131959874Y-114775817D01*
X131929122Y-114716096D01*
X131927726Y-114648937D01*
X131955970Y-114587990D01*
X132008113Y-114545642D01*
X132073558Y-114530500D01*
X138623860Y-114530500D01*
X138697469Y-114549952D01*
X138751859Y-114603229D01*
X138772828Y-114676421D01*
X138754902Y-114750415D01*
X138743939Y-114770671D01*
X138638671Y-114965190D01*
X138557928Y-115200386D01*
X138517000Y-115445666D01*
X138517000Y-115694334D01*
X138557928Y-115939613D01*
X138638671Y-116174809D01*
X138757026Y-116393509D01*
X138909764Y-116589747D01*
X139062529Y-116730376D01*
X139098065Y-116780146D01*
X139110615Y-116839999D01*
X139098065Y-116899851D01*
X139062530Y-116949622D01*
X138909762Y-117090255D01*
X138757026Y-117286490D01*
X138638671Y-117505190D01*
X138557928Y-117740386D01*
X138517000Y-117985666D01*
X138517000Y-118234334D01*
X138557928Y-118479613D01*
X138638671Y-118714809D01*
X138757026Y-118933509D01*
X138909762Y-119129744D01*
X139062530Y-119270377D01*
X139098065Y-119320147D01*
X139110615Y-119380000D01*
X139098065Y-119439853D01*
X139062530Y-119489623D01*
X138909762Y-119630255D01*
X138757026Y-119826490D01*
X138638671Y-120045190D01*
X138557928Y-120280386D01*
X138517000Y-120525666D01*
X138517000Y-120774334D01*
X138557928Y-121019613D01*
X138638671Y-121254809D01*
X138638672Y-121254810D01*
X138757026Y-121473509D01*
X138909762Y-121669744D01*
X139092715Y-121838164D01*
X139300893Y-121974173D01*
X139528619Y-122074063D01*
X139769679Y-122135108D01*
X139877967Y-122144081D01*
X139955431Y-122150500D01*
X139955433Y-122150500D01*
X147217584Y-122150500D01*
X147236013Y-122151643D01*
X147257779Y-122154357D01*
X147347964Y-122150626D01*
X147354121Y-122150500D01*
X147382061Y-122150500D01*
X147382067Y-122150500D01*
X147409962Y-122148187D01*
X147416033Y-122147811D01*
X147506237Y-122144081D01*
X147527703Y-122139579D01*
X147545976Y-122136918D01*
X147552809Y-122136351D01*
X147567821Y-122135108D01*
X147655363Y-122112938D01*
X147661253Y-122111576D01*
X147749614Y-122093049D01*
X147770048Y-122085075D01*
X147787613Y-122079448D01*
X147808881Y-122074063D01*
X147891528Y-122037810D01*
X147897194Y-122035463D01*
X147981274Y-122002656D01*
X148000104Y-121991434D01*
X148016531Y-121982978D01*
X148036607Y-121974173D01*
X148112161Y-121924811D01*
X148117344Y-121921575D01*
X148194894Y-121875366D01*
X148211624Y-121861196D01*
X148226424Y-121850158D01*
X148244785Y-121838164D01*
X148311188Y-121777033D01*
X148315749Y-121773005D01*
X148337126Y-121754902D01*
X148356922Y-121735104D01*
X148361317Y-121730887D01*
X148427738Y-121669744D01*
X148441213Y-121652430D01*
X148453420Y-121638606D01*
X154404606Y-115687420D01*
X154418430Y-115675213D01*
X154435744Y-115661738D01*
X154496887Y-115595317D01*
X154501104Y-115590922D01*
X154520902Y-115571126D01*
X154539005Y-115549749D01*
X154543033Y-115545188D01*
X154604164Y-115478785D01*
X154616155Y-115460430D01*
X154627195Y-115445625D01*
X154628698Y-115443850D01*
X154641366Y-115428894D01*
X154687590Y-115351318D01*
X154690799Y-115346177D01*
X154740173Y-115270607D01*
X154748981Y-115250524D01*
X154757424Y-115234122D01*
X154768656Y-115215273D01*
X154801464Y-115131188D01*
X154803813Y-115125519D01*
X154840063Y-115042881D01*
X154845446Y-115021618D01*
X154851075Y-115004048D01*
X154859049Y-114983614D01*
X154877576Y-114895253D01*
X154878938Y-114889363D01*
X154901108Y-114801821D01*
X154902918Y-114779976D01*
X154905579Y-114761703D01*
X154910081Y-114740237D01*
X154913811Y-114650033D01*
X154914187Y-114643962D01*
X154916500Y-114616067D01*
X154916500Y-114588121D01*
X154916627Y-114581964D01*
X154918367Y-114539894D01*
X154920357Y-114491779D01*
X154917643Y-114470013D01*
X154916500Y-114451584D01*
X154916500Y-93014859D01*
X154931103Y-92950528D01*
X154972050Y-92898807D01*
X155031315Y-92869833D01*
X155097281Y-92869288D01*
X155157015Y-92897275D01*
X155165531Y-92903903D01*
X155375455Y-93017509D01*
X155460358Y-93046656D01*
X155601215Y-93095012D01*
X155718934Y-93114655D01*
X155836653Y-93134300D01*
X156075346Y-93134300D01*
X156075347Y-93134300D01*
X156310784Y-93095012D01*
X156536545Y-93017509D01*
X156746469Y-92903903D01*
X156754984Y-92897275D01*
X156814719Y-92869288D01*
X156880685Y-92869833D01*
G37*
%TD.AperFunction*%
M02*
