M48
; DRILL file {KiCad 7.0.1} date Mon Aug 12 22:54:03 2024
; FORMAT={-:-/ absolute / metric / decimal}
; #@! TF.CreationDate,2024-08-12T22:54:03-03:00
; #@! TF.GenerationSoftware,Kicad,Pcbnew,7.0.1
; #@! TF.FileFunction,Plated,1,2,PTH
FMAT,2
METRIC
; #@! TA.AperFunction,Plated,PTH,ComponentDrill
T1C1.016
%
G90
G05
T1
X128.435Y-82.433
X128.435Y-84.973
X128.435Y-87.513
X128.435Y-90.053
X128.435Y-92.593
X128.435Y-95.133
X128.435Y-97.673
X128.435Y-100.213
X137.16Y-72.136
X137.16Y-74.676
X137.16Y-77.216
X137.16Y-79.756
X137.16Y-82.296
X137.16Y-84.836
X137.16Y-87.376
X137.16Y-89.916
X137.16Y-92.456
X137.16Y-94.996
X137.16Y-97.536
X137.16Y-100.076
X137.16Y-107.696
X162.56Y-72.136
X162.56Y-107.696
T0
M30
