%TF.GenerationSoftware,KiCad,Pcbnew,7.0.1*%
%TF.CreationDate,2024-08-12T22:53:57-03:00*%
%TF.ProjectId,placa_rx,706c6163-615f-4727-982e-6b696361645f,rev?*%
%TF.SameCoordinates,Original*%
%TF.FileFunction,Copper,L1,Top*%
%TF.FilePolarity,Positive*%
%FSLAX46Y46*%
G04 Gerber Fmt 4.6, Leading zero omitted, Abs format (unit mm)*
G04 Created by KiCad (PCBNEW 7.0.1) date 2024-08-12 22:53:57*
%MOMM*%
%LPD*%
G01*
G04 APERTURE LIST*
%TA.AperFunction,ComponentPad*%
%ADD10C,1.879600*%
%TD*%
%TA.AperFunction,Conductor*%
%ADD11C,2.000000*%
%TD*%
G04 APERTURE END LIST*
D10*
%TO.P,LoRaSX1,8,VCC*%
%TO.N,Net-(ESP32-3.3V)*%
X128435260Y-100213290D03*
%TO.P,LoRaSX1,7,MISO*%
%TO.N,Net-(ESP32-MISO)*%
X128435260Y-97673290D03*
%TO.P,LoRaSX1,6,MOSI*%
%TO.N,Net-(ESP32-MOSI)*%
X128435260Y-95133290D03*
%TO.P,LoRaSX1,5,SLK*%
%TO.N,Net-(ESP32-SLCK)*%
X128435260Y-92593290D03*
%TO.P,LoRaSX1,4,NSS*%
%TO.N,Net-(ESP32-NSS)*%
X128435260Y-90053290D03*
%TO.P,LoRaSX1,3,DIO0*%
%TO.N,Net-(LoRaSX1-DIO0)*%
X128435260Y-87513290D03*
%TO.P,LoRaSX1,2,REST*%
%TO.N,Net-(ESP32-DIO0)*%
X128435260Y-84973290D03*
%TO.P,LoRaSX1,1,GND*%
%TO.N,Net-(ESP32-GND)*%
X128435260Y-82433290D03*
%TD*%
%TO.P,ESP32,30*%
%TO.N,unconnected-(ESP32-Pad30)*%
X162560000Y-72136000D03*
%TO.P,ESP32,16*%
%TO.N,unconnected-(ESP32-Pad16)*%
X162560000Y-107696000D03*
%TO.P,ESP32,15,MOSI*%
%TO.N,Net-(ESP32-MOSI)*%
X137160000Y-107696000D03*
%TO.P,ESP32,12*%
%TO.N,unconnected-(ESP32-Pad12)*%
X137160000Y-100076000D03*
%TO.P,ESP32,11*%
%TO.N,unconnected-(ESP32-Pad11)*%
X137160000Y-97536000D03*
%TO.P,ESP32,10,MISO*%
%TO.N,Net-(ESP32-MISO)*%
X137160000Y-94996000D03*
%TO.P,ESP32,9,SLCK*%
%TO.N,Net-(ESP32-SLCK)*%
X137160000Y-92456000D03*
%TO.P,ESP32,8,NSS*%
%TO.N,Net-(ESP32-NSS)*%
X137160000Y-89916000D03*
%TO.P,ESP32,7*%
%TO.N,unconnected-(ESP32-Pad7)*%
X137160000Y-87376000D03*
%TO.P,ESP32,6*%
%TO.N,unconnected-(ESP32-Pad6)*%
X137160000Y-84836000D03*
%TO.P,ESP32,5*%
%TO.N,Net-(LoRaSX1-DIO0)*%
X137160000Y-82296000D03*
%TO.P,ESP32,4,DIO0*%
%TO.N,Net-(ESP32-DIO0)*%
X137160000Y-79756000D03*
%TO.P,ESP32,3*%
%TO.N,unconnected-(ESP32-Pad3)*%
X137160000Y-77216000D03*
%TO.P,ESP32,2,GND*%
%TO.N,Net-(ESP32-GND)*%
X137160000Y-74676000D03*
%TO.P,ESP32,1,3.3V*%
%TO.N,Net-(ESP32-3.3V)*%
X137160000Y-72136000D03*
%TD*%
D11*
%TO.N,Net-(ESP32-NSS)*%
X128435260Y-90053290D02*
X137022710Y-90053290D01*
%TO.N,Net-(ESP32-SLCK)*%
X128435260Y-92593290D02*
X137022710Y-92593290D01*
%TO.N,Net-(ESP32-NSS)*%
X137022710Y-90053290D02*
X137160000Y-89916000D01*
%TO.N,Net-(ESP32-SLCK)*%
X137022710Y-92593290D02*
X137160000Y-92456000D01*
%TO.N,Net-(ESP32-DIO0)*%
X129764337Y-84973290D02*
X134981627Y-79756000D01*
X134981627Y-79756000D02*
X137160000Y-79756000D01*
%TO.N,Net-(LoRaSX1-DIO0)*%
X130926710Y-87513290D02*
X136144000Y-82296000D01*
X136144000Y-82296000D02*
X137160000Y-82296000D01*
X128435260Y-87513290D02*
X130926710Y-87513290D01*
%TO.N,Net-(ESP32-DIO0)*%
X128435260Y-84973290D02*
X129764337Y-84973290D01*
%TO.N,Net-(ESP32-3.3V)*%
X143075650Y-76170362D02*
X139041288Y-72136000D01*
X139041288Y-72136000D02*
X137160000Y-72136000D01*
X128435260Y-102423972D02*
X130121650Y-104110362D01*
X128435260Y-100213290D02*
X128435260Y-102423972D01*
%TO.N,Net-(ESP32-MOSI)*%
X126338212Y-107696000D02*
X137160000Y-107696000D01*
%TO.N,Net-(ESP32-MISO)*%
X133394012Y-94996000D02*
X137160000Y-94996000D01*
X130716722Y-97673290D02*
X133394012Y-94996000D01*
%TO.N,Net-(ESP32-MOSI)*%
X128435260Y-95133290D02*
X127106183Y-95133290D01*
X127106183Y-95133290D02*
X125038574Y-97200899D01*
X125038574Y-97200899D02*
X125038574Y-106396362D01*
X125038574Y-106396362D02*
X126338212Y-107696000D01*
%TO.N,Net-(ESP32-3.3V)*%
X143075650Y-100046362D02*
X143075650Y-76170362D01*
X139011650Y-104110362D02*
X143075650Y-100046362D01*
X130121650Y-104110362D02*
X139011650Y-104110362D01*
%TO.N,Net-(ESP32-MISO)*%
X128435260Y-97673290D02*
X130716722Y-97673290D01*
%TD*%
%TA.AperFunction,Conductor*%
%TO.N,Net-(ESP32-GND)*%
G36*
X167467044Y-60972755D02*
G01*
X167536604Y-61008315D01*
X167591723Y-61063679D01*
X167626973Y-61133397D01*
X167638886Y-61210607D01*
X167392748Y-116591607D01*
X167373477Y-116686554D01*
X167319428Y-116766960D01*
X167238783Y-116820652D01*
X167143750Y-116839500D01*
X108199000Y-116839500D01*
X108103712Y-116820546D01*
X108022930Y-116766570D01*
X107968954Y-116685788D01*
X107950000Y-116590500D01*
X107950000Y-106510142D01*
X123738073Y-106510142D01*
X123746083Y-106555569D01*
X123748918Y-106577101D01*
X123752939Y-106623054D01*
X123764878Y-106667614D01*
X123769577Y-106688812D01*
X123777587Y-106734238D01*
X123793363Y-106777581D01*
X123799894Y-106798295D01*
X123811834Y-106842856D01*
X123831327Y-106884658D01*
X123839639Y-106904726D01*
X123855417Y-106948076D01*
X123878483Y-106988027D01*
X123888510Y-107007288D01*
X123908006Y-107049096D01*
X123934466Y-107086885D01*
X123946132Y-107105198D01*
X123969196Y-107145147D01*
X123998848Y-107180485D01*
X124012070Y-107197716D01*
X124038527Y-107235501D01*
X124199435Y-107396409D01*
X124199438Y-107396411D01*
X125338162Y-108535135D01*
X125338162Y-108535136D01*
X125499074Y-108696049D01*
X125536858Y-108722505D01*
X125554094Y-108735730D01*
X125589426Y-108765377D01*
X125629393Y-108788451D01*
X125647678Y-108800100D01*
X125685478Y-108826568D01*
X125727292Y-108846066D01*
X125746542Y-108856088D01*
X125786492Y-108879154D01*
X125786496Y-108879155D01*
X125786497Y-108879156D01*
X125829851Y-108894935D01*
X125849903Y-108903241D01*
X125891716Y-108922739D01*
X125936284Y-108934680D01*
X125956972Y-108941202D01*
X126000333Y-108956985D01*
X126045781Y-108964998D01*
X126066948Y-108969691D01*
X126111520Y-108981635D01*
X126157476Y-108985655D01*
X126178990Y-108988487D01*
X126224433Y-108996501D01*
X126451991Y-108996501D01*
X126472593Y-108996501D01*
X126472605Y-108996500D01*
X137216790Y-108996500D01*
X137386686Y-108981636D01*
X137386688Y-108981635D01*
X137386692Y-108981635D01*
X137606496Y-108922739D01*
X137812734Y-108826568D01*
X137999139Y-108696047D01*
X138160047Y-108535139D01*
X138290568Y-108348734D01*
X138386739Y-108142496D01*
X138445635Y-107922692D01*
X138465468Y-107696000D01*
X138465468Y-107695999D01*
X161314962Y-107695999D01*
X161333877Y-107912203D01*
X161390046Y-108121826D01*
X161481765Y-108318521D01*
X161606242Y-108496290D01*
X161606246Y-108496295D01*
X161759705Y-108649754D01*
X161759708Y-108649756D01*
X161759709Y-108649757D01*
X161937478Y-108774234D01*
X161992968Y-108800109D01*
X162134172Y-108865953D01*
X162226601Y-108890719D01*
X162343796Y-108922122D01*
X162343797Y-108922122D01*
X162343801Y-108922123D01*
X162560000Y-108941038D01*
X162776199Y-108922123D01*
X162985828Y-108865953D01*
X163182519Y-108774235D01*
X163182519Y-108774234D01*
X163182521Y-108774234D01*
X163294182Y-108696047D01*
X163360295Y-108649754D01*
X163513754Y-108496295D01*
X163638235Y-108318519D01*
X163729953Y-108121828D01*
X163786123Y-107912199D01*
X163805038Y-107696000D01*
X163786123Y-107479801D01*
X163783311Y-107469308D01*
X163729953Y-107270173D01*
X163713785Y-107235501D01*
X163648634Y-107095781D01*
X163638234Y-107073478D01*
X163513757Y-106895709D01*
X163513756Y-106895708D01*
X163513754Y-106895705D01*
X163360295Y-106742246D01*
X163360291Y-106742243D01*
X163360290Y-106742242D01*
X163182521Y-106617765D01*
X162985826Y-106526046D01*
X162776203Y-106469877D01*
X162560000Y-106450962D01*
X162343796Y-106469877D01*
X162134173Y-106526046D01*
X161937478Y-106617765D01*
X161759709Y-106742242D01*
X161606242Y-106895709D01*
X161481765Y-107073478D01*
X161390046Y-107270173D01*
X161333877Y-107479796D01*
X161314962Y-107695999D01*
X138465468Y-107695999D01*
X138445636Y-107469313D01*
X138426102Y-107396411D01*
X138386739Y-107249504D01*
X138290568Y-107043266D01*
X138160047Y-106856861D01*
X137999139Y-106695953D01*
X137812734Y-106565432D01*
X137812730Y-106565430D01*
X137812727Y-106565428D01*
X137606500Y-106469263D01*
X137606496Y-106469261D01*
X137451990Y-106427861D01*
X137386686Y-106410363D01*
X137216790Y-106395500D01*
X137216784Y-106395500D01*
X126980037Y-106395500D01*
X126884749Y-106376546D01*
X126803967Y-106322570D01*
X126412004Y-105930607D01*
X126358028Y-105849825D01*
X126339074Y-105754537D01*
X126339074Y-97842724D01*
X126358028Y-97747436D01*
X126412004Y-97666655D01*
X126715499Y-97363159D01*
X126786337Y-97313558D01*
X126869866Y-97291176D01*
X126956014Y-97298712D01*
X127034389Y-97335258D01*
X127095537Y-97396406D01*
X127132084Y-97474781D01*
X127139622Y-97560928D01*
X127129792Y-97673290D01*
X127149623Y-97899976D01*
X127167121Y-97965280D01*
X127208521Y-98119786D01*
X127208523Y-98119790D01*
X127304688Y-98326017D01*
X127304690Y-98326020D01*
X127304692Y-98326024D01*
X127435213Y-98512429D01*
X127596121Y-98673337D01*
X127596124Y-98673339D01*
X127690356Y-98739321D01*
X127756365Y-98807675D01*
X127791961Y-98895778D01*
X127791961Y-98990802D01*
X127756365Y-99078905D01*
X127690356Y-99147259D01*
X127596124Y-99213240D01*
X127435213Y-99374151D01*
X127304688Y-99560562D01*
X127208523Y-99766789D01*
X127208521Y-99766794D01*
X127183601Y-99859796D01*
X127149623Y-99986603D01*
X127134760Y-100156500D01*
X127134760Y-102289579D01*
X127134759Y-102289591D01*
X127134759Y-102537752D01*
X127142769Y-102583179D01*
X127145604Y-102604711D01*
X127149625Y-102650664D01*
X127161564Y-102695224D01*
X127166263Y-102716422D01*
X127174273Y-102761848D01*
X127190049Y-102805191D01*
X127196580Y-102825905D01*
X127208520Y-102870466D01*
X127228013Y-102912268D01*
X127236325Y-102932336D01*
X127252103Y-102975686D01*
X127275169Y-103015637D01*
X127285196Y-103034898D01*
X127304692Y-103076706D01*
X127331152Y-103114495D01*
X127342818Y-103132808D01*
X127365882Y-103172757D01*
X127395534Y-103208095D01*
X127408756Y-103225326D01*
X127435213Y-103263111D01*
X127596121Y-103424019D01*
X127596124Y-103424021D01*
X129121600Y-104949497D01*
X129121600Y-104949498D01*
X129282512Y-105110411D01*
X129320296Y-105136867D01*
X129337532Y-105150092D01*
X129372864Y-105179739D01*
X129412831Y-105202813D01*
X129431116Y-105214462D01*
X129468916Y-105240930D01*
X129510730Y-105260428D01*
X129529980Y-105270450D01*
X129569930Y-105293516D01*
X129569934Y-105293517D01*
X129569935Y-105293518D01*
X129613289Y-105309297D01*
X129633341Y-105317603D01*
X129675154Y-105337101D01*
X129719722Y-105349042D01*
X129740410Y-105355564D01*
X129783771Y-105371347D01*
X129829219Y-105379360D01*
X129850386Y-105384053D01*
X129894958Y-105395997D01*
X129940914Y-105400017D01*
X129962428Y-105402849D01*
X130007871Y-105410863D01*
X130235429Y-105410863D01*
X130256031Y-105410863D01*
X130256043Y-105410862D01*
X138877257Y-105410862D01*
X138877269Y-105410863D01*
X138897871Y-105410863D01*
X139125426Y-105410863D01*
X139125429Y-105410863D01*
X139170871Y-105402849D01*
X139192386Y-105400017D01*
X139238342Y-105395997D01*
X139282906Y-105384055D01*
X139304088Y-105379359D01*
X139349530Y-105371347D01*
X139392882Y-105355567D01*
X139413583Y-105349041D01*
X139432700Y-105343918D01*
X139458146Y-105337101D01*
X139499946Y-105317607D01*
X139520023Y-105309292D01*
X139563365Y-105293518D01*
X139603333Y-105270441D01*
X139622576Y-105260424D01*
X139664384Y-105240930D01*
X139702179Y-105214464D01*
X139720462Y-105202816D01*
X139760436Y-105179739D01*
X139795779Y-105150081D01*
X139812985Y-105136877D01*
X139850789Y-105110409D01*
X140011697Y-104949501D01*
X140011699Y-104949497D01*
X143914785Y-101046411D01*
X143914789Y-101046409D01*
X144075697Y-100885501D01*
X144102165Y-100847697D01*
X144115369Y-100830491D01*
X144145027Y-100795148D01*
X144168104Y-100755174D01*
X144179752Y-100736891D01*
X144206218Y-100699096D01*
X144225712Y-100657288D01*
X144235729Y-100638045D01*
X144258806Y-100598077D01*
X144274580Y-100554732D01*
X144282897Y-100534656D01*
X144302389Y-100492857D01*
X144314329Y-100448295D01*
X144320855Y-100427594D01*
X144336635Y-100384242D01*
X144344647Y-100338800D01*
X144349343Y-100317618D01*
X144361285Y-100273054D01*
X144365305Y-100227098D01*
X144368137Y-100205583D01*
X144376151Y-100160141D01*
X144376151Y-99932583D01*
X144376151Y-99911981D01*
X144376150Y-99911969D01*
X144376150Y-76304755D01*
X144376151Y-76304743D01*
X144376151Y-76056586D01*
X144376151Y-76056583D01*
X144368137Y-76011140D01*
X144365305Y-75989626D01*
X144361285Y-75943670D01*
X144349344Y-75899110D01*
X144344643Y-75877900D01*
X144340907Y-75856711D01*
X144336635Y-75832482D01*
X144320856Y-75789133D01*
X144314327Y-75768421D01*
X144302389Y-75723866D01*
X144282888Y-75682047D01*
X144274578Y-75661985D01*
X144258805Y-75618646D01*
X144235742Y-75578701D01*
X144225709Y-75559428D01*
X144206218Y-75517628D01*
X144179754Y-75479833D01*
X144168093Y-75461530D01*
X144145026Y-75421576D01*
X144145025Y-75421575D01*
X144145023Y-75421571D01*
X144115385Y-75386251D01*
X144102158Y-75369014D01*
X144075696Y-75331221D01*
X143900229Y-75155754D01*
X143900210Y-75155738D01*
X140880473Y-72136000D01*
X161314962Y-72136000D01*
X161333877Y-72352203D01*
X161390046Y-72561826D01*
X161481765Y-72758521D01*
X161606242Y-72936290D01*
X161606246Y-72936295D01*
X161759705Y-73089754D01*
X161759708Y-73089756D01*
X161759709Y-73089757D01*
X161937478Y-73214234D01*
X162028165Y-73256521D01*
X162134172Y-73305953D01*
X162226601Y-73330719D01*
X162343796Y-73362122D01*
X162343797Y-73362122D01*
X162343801Y-73362123D01*
X162560000Y-73381038D01*
X162776199Y-73362123D01*
X162985828Y-73305953D01*
X163182519Y-73214235D01*
X163182519Y-73214234D01*
X163182521Y-73214234D01*
X163294182Y-73136047D01*
X163360295Y-73089754D01*
X163513754Y-72936295D01*
X163638235Y-72758519D01*
X163729953Y-72561828D01*
X163786123Y-72352199D01*
X163805038Y-72136000D01*
X163786123Y-71919801D01*
X163783311Y-71909308D01*
X163729953Y-71710173D01*
X163638234Y-71513478D01*
X163513757Y-71335709D01*
X163513756Y-71335708D01*
X163513754Y-71335705D01*
X163360295Y-71182246D01*
X163360291Y-71182243D01*
X163360290Y-71182242D01*
X163182521Y-71057765D01*
X162985826Y-70966046D01*
X162776203Y-70909877D01*
X162560000Y-70890962D01*
X162343796Y-70909877D01*
X162134173Y-70966046D01*
X161937478Y-71057765D01*
X161759709Y-71182242D01*
X161606242Y-71335709D01*
X161481765Y-71513478D01*
X161390046Y-71710173D01*
X161333877Y-71919796D01*
X161314962Y-72136000D01*
X140880473Y-72136000D01*
X140041337Y-71296864D01*
X140041335Y-71296861D01*
X139880427Y-71135953D01*
X139842642Y-71109496D01*
X139825411Y-71096274D01*
X139790073Y-71066622D01*
X139750124Y-71043558D01*
X139731811Y-71031892D01*
X139694022Y-71005432D01*
X139652214Y-70985936D01*
X139632953Y-70975909D01*
X139593002Y-70952843D01*
X139549652Y-70937065D01*
X139529584Y-70928753D01*
X139487782Y-70909260D01*
X139443221Y-70897320D01*
X139422507Y-70890789D01*
X139379164Y-70875013D01*
X139333738Y-70867003D01*
X139312540Y-70862304D01*
X139267980Y-70850365D01*
X139222027Y-70846344D01*
X139200499Y-70843509D01*
X139176557Y-70839288D01*
X139155068Y-70835499D01*
X139155067Y-70835499D01*
X138927509Y-70835499D01*
X138906907Y-70835499D01*
X138906895Y-70835500D01*
X137103210Y-70835500D01*
X136933313Y-70850363D01*
X136841320Y-70875013D01*
X136713504Y-70909261D01*
X136713500Y-70909262D01*
X136713499Y-70909263D01*
X136507272Y-71005428D01*
X136507266Y-71005431D01*
X136507266Y-71005432D01*
X136377529Y-71096274D01*
X136320861Y-71135953D01*
X136159953Y-71296861D01*
X136029428Y-71483272D01*
X135933263Y-71689499D01*
X135933261Y-71689504D01*
X135927723Y-71710173D01*
X135874363Y-71909313D01*
X135854531Y-72135999D01*
X135874363Y-72362686D01*
X135874365Y-72362692D01*
X135933261Y-72582496D01*
X135933263Y-72582500D01*
X136029428Y-72788727D01*
X136029430Y-72788730D01*
X136029432Y-72788734D01*
X136159953Y-72975139D01*
X136320861Y-73136047D01*
X136320864Y-73136049D01*
X136328734Y-73143919D01*
X136377260Y-73212482D01*
X136400227Y-73293278D01*
X136395023Y-73377115D01*
X136362238Y-73454450D01*
X136333415Y-73486020D01*
X136332840Y-73495287D01*
X137160000Y-74322448D01*
X137160000Y-74322447D01*
X138339942Y-75502388D01*
X138430605Y-75363619D01*
X138526455Y-75145104D01*
X138585030Y-74913796D01*
X138604734Y-74675999D01*
X138585030Y-74438203D01*
X138526453Y-74206890D01*
X138474608Y-74088694D01*
X138454197Y-74005385D01*
X138463265Y-73920093D01*
X138500737Y-73842939D01*
X138562166Y-73783077D01*
X138640263Y-73747610D01*
X138725760Y-73740748D01*
X138808514Y-73763304D01*
X138878705Y-73812602D01*
X141702220Y-76636116D01*
X141741790Y-76687686D01*
X141766666Y-76747740D01*
X141775150Y-76812186D01*
X141775150Y-99404537D01*
X141756196Y-99499825D01*
X141702220Y-99580607D01*
X138545895Y-102736932D01*
X138465113Y-102790908D01*
X138369825Y-102809862D01*
X130763475Y-102809862D01*
X130668187Y-102790908D01*
X130587405Y-102736932D01*
X129808690Y-101958217D01*
X129754714Y-101877435D01*
X129735760Y-101782147D01*
X129735760Y-100156500D01*
X129720896Y-99986603D01*
X129720895Y-99986598D01*
X129661999Y-99766794D01*
X129565828Y-99560556D01*
X129435307Y-99374151D01*
X129429326Y-99365609D01*
X129391868Y-99283730D01*
X129385980Y-99193882D01*
X129412431Y-99107814D01*
X129467762Y-99036780D01*
X129544739Y-98990070D01*
X129633296Y-98973790D01*
X130582329Y-98973790D01*
X130582341Y-98973791D01*
X130602943Y-98973791D01*
X130830498Y-98973791D01*
X130830501Y-98973791D01*
X130875943Y-98965777D01*
X130897458Y-98962945D01*
X130943414Y-98958925D01*
X130987978Y-98946983D01*
X131009160Y-98942287D01*
X131054602Y-98934275D01*
X131097954Y-98918495D01*
X131118655Y-98911969D01*
X131140757Y-98906047D01*
X131163218Y-98900029D01*
X131205018Y-98880535D01*
X131225095Y-98872220D01*
X131268437Y-98856446D01*
X131308405Y-98833369D01*
X131327648Y-98823352D01*
X131369456Y-98803858D01*
X131407251Y-98777392D01*
X131425534Y-98765744D01*
X131465508Y-98742667D01*
X131500851Y-98713009D01*
X131518057Y-98699805D01*
X131555861Y-98673337D01*
X131716769Y-98512429D01*
X131716771Y-98512425D01*
X133859766Y-96369430D01*
X133940549Y-96315454D01*
X134035837Y-96296500D01*
X136044312Y-96296500D01*
X136139600Y-96315454D01*
X136220382Y-96369430D01*
X136274358Y-96450212D01*
X136293312Y-96545500D01*
X136274358Y-96640788D01*
X136220384Y-96721566D01*
X136206246Y-96735705D01*
X136206242Y-96735709D01*
X136081765Y-96913478D01*
X135990046Y-97110173D01*
X135933877Y-97319796D01*
X135914962Y-97535999D01*
X135933877Y-97752203D01*
X135990046Y-97961826D01*
X136081765Y-98158521D01*
X136199049Y-98326017D01*
X136206246Y-98336295D01*
X136359705Y-98489754D01*
X136392087Y-98512428D01*
X136520053Y-98602032D01*
X136586060Y-98670386D01*
X136621656Y-98758489D01*
X136621656Y-98853511D01*
X136586060Y-98941614D01*
X136520053Y-99009968D01*
X136359707Y-99122244D01*
X136206242Y-99275709D01*
X136081765Y-99453478D01*
X135990046Y-99650173D01*
X135933877Y-99859796D01*
X135914962Y-100076000D01*
X135933877Y-100292203D01*
X135990046Y-100501826D01*
X136081765Y-100698521D01*
X136206242Y-100876290D01*
X136206246Y-100876295D01*
X136359705Y-101029754D01*
X136359708Y-101029756D01*
X136359709Y-101029757D01*
X136537478Y-101154234D01*
X136628165Y-101196521D01*
X136734172Y-101245953D01*
X136826601Y-101270719D01*
X136943796Y-101302122D01*
X136943797Y-101302122D01*
X136943801Y-101302123D01*
X137160000Y-101321038D01*
X137376199Y-101302123D01*
X137585828Y-101245953D01*
X137782519Y-101154235D01*
X137782519Y-101154234D01*
X137782521Y-101154234D01*
X137861482Y-101098943D01*
X137960295Y-101029754D01*
X138113754Y-100876295D01*
X138238235Y-100698519D01*
X138329953Y-100501828D01*
X138386123Y-100292199D01*
X138405038Y-100076000D01*
X138386123Y-99859801D01*
X138361200Y-99766789D01*
X138329953Y-99650173D01*
X138238234Y-99453478D01*
X138113757Y-99275709D01*
X138113756Y-99275708D01*
X138113754Y-99275705D01*
X137960295Y-99122246D01*
X137799947Y-99009968D01*
X137799946Y-99009967D01*
X137733938Y-98941613D01*
X137698343Y-98853509D01*
X137698343Y-98758487D01*
X137733939Y-98670384D01*
X137799945Y-98602033D01*
X137960295Y-98489754D01*
X138113754Y-98336295D01*
X138238235Y-98158519D01*
X138329953Y-97961828D01*
X138386123Y-97752199D01*
X138405038Y-97536000D01*
X138386123Y-97319801D01*
X138384750Y-97314678D01*
X138329953Y-97110173D01*
X138319203Y-97087120D01*
X138266551Y-96974205D01*
X138238234Y-96913478D01*
X138113757Y-96735709D01*
X138113756Y-96735708D01*
X138113754Y-96735705D01*
X137960295Y-96582246D01*
X137960291Y-96582243D01*
X137960290Y-96582242D01*
X137852424Y-96506713D01*
X137786415Y-96438359D01*
X137750820Y-96350255D01*
X137750820Y-96255232D01*
X137786417Y-96167129D01*
X137852424Y-96098776D01*
X137999139Y-95996047D01*
X138160047Y-95835139D01*
X138290568Y-95648734D01*
X138386739Y-95442496D01*
X138445635Y-95222692D01*
X138465468Y-94996000D01*
X138457647Y-94906603D01*
X138445636Y-94769313D01*
X138445635Y-94769308D01*
X138386739Y-94549504D01*
X138290568Y-94343266D01*
X138160047Y-94156861D01*
X137999139Y-93995953D01*
X137924665Y-93943806D01*
X137863518Y-93882659D01*
X137826971Y-93804284D01*
X137819434Y-93718136D01*
X137841816Y-93634606D01*
X137891414Y-93563771D01*
X138022757Y-93432429D01*
X138022758Y-93432427D01*
X138051318Y-93403867D01*
X138051327Y-93403856D01*
X138119744Y-93335440D01*
X138194775Y-93246022D01*
X138229375Y-93204788D01*
X138324637Y-93039790D01*
X138343156Y-93007715D01*
X138420985Y-92793880D01*
X138460501Y-92569779D01*
X138460501Y-92342221D01*
X138420985Y-92118121D01*
X138343156Y-91904285D01*
X138229376Y-91707214D01*
X138229375Y-91707212D01*
X138083107Y-91532897D01*
X137910202Y-91387812D01*
X137856822Y-91325311D01*
X137826698Y-91248836D01*
X137823113Y-91166721D01*
X137846458Y-91087912D01*
X137894185Y-91021000D01*
X138022757Y-90892429D01*
X138022758Y-90892427D01*
X138051318Y-90863867D01*
X138051327Y-90863856D01*
X138119744Y-90795440D01*
X138194779Y-90706017D01*
X138229375Y-90664788D01*
X138324637Y-90499790D01*
X138343156Y-90467715D01*
X138420985Y-90253880D01*
X138460501Y-90029779D01*
X138460501Y-89802221D01*
X138420985Y-89578121D01*
X138343156Y-89364285D01*
X138229376Y-89167214D01*
X138229375Y-89167212D01*
X138133740Y-89053240D01*
X138083105Y-88992895D01*
X137908786Y-88846624D01*
X137870926Y-88824765D01*
X137807030Y-88771937D01*
X137764020Y-88701057D01*
X137746665Y-88619986D01*
X137756889Y-88537711D01*
X137793558Y-88463354D01*
X137852605Y-88405159D01*
X137960295Y-88329754D01*
X138113754Y-88176295D01*
X138238235Y-87998519D01*
X138329953Y-87801828D01*
X138386123Y-87592199D01*
X138405038Y-87376000D01*
X138386123Y-87159801D01*
X138361200Y-87066789D01*
X138329953Y-86950173D01*
X138238234Y-86753478D01*
X138113757Y-86575709D01*
X138113756Y-86575708D01*
X138113754Y-86575705D01*
X137960295Y-86422246D01*
X137960291Y-86422243D01*
X137960290Y-86422242D01*
X137799947Y-86309968D01*
X137733939Y-86241615D01*
X137698343Y-86153511D01*
X137698343Y-86058489D01*
X137733939Y-85970385D01*
X137799947Y-85902032D01*
X137860700Y-85859491D01*
X137960295Y-85789754D01*
X138113754Y-85636295D01*
X138238235Y-85458519D01*
X138329953Y-85261828D01*
X138386123Y-85052199D01*
X138405038Y-84836000D01*
X138386123Y-84619801D01*
X138361200Y-84526789D01*
X138329953Y-84410173D01*
X138238234Y-84213478D01*
X138113757Y-84035709D01*
X138113756Y-84035708D01*
X138113754Y-84035705D01*
X137960295Y-83882246D01*
X137960291Y-83882243D01*
X137960290Y-83882242D01*
X137852424Y-83806713D01*
X137786415Y-83738359D01*
X137750820Y-83650255D01*
X137750820Y-83555232D01*
X137786417Y-83467129D01*
X137852424Y-83398776D01*
X137999139Y-83296047D01*
X138160047Y-83135139D01*
X138290568Y-82948734D01*
X138386739Y-82742496D01*
X138445635Y-82522692D01*
X138465468Y-82296000D01*
X138456675Y-82195493D01*
X138445636Y-82069313D01*
X138445635Y-82069308D01*
X138386739Y-81849504D01*
X138290568Y-81643266D01*
X138160047Y-81456861D01*
X137999139Y-81295953D01*
X137904902Y-81229968D01*
X137838894Y-81161616D01*
X137803298Y-81073512D01*
X137803298Y-80978488D01*
X137838894Y-80890384D01*
X137904902Y-80822031D01*
X137999139Y-80756047D01*
X138160047Y-80595139D01*
X138290568Y-80408734D01*
X138386739Y-80202496D01*
X138445635Y-79982692D01*
X138465468Y-79756000D01*
X138465467Y-79755999D01*
X138445636Y-79529313D01*
X138445635Y-79529308D01*
X138386739Y-79309504D01*
X138290568Y-79103266D01*
X138160047Y-78916861D01*
X137999139Y-78755953D01*
X137961343Y-78729488D01*
X137852425Y-78653223D01*
X137786416Y-78584869D01*
X137750820Y-78496766D01*
X137750820Y-78401743D01*
X137786416Y-78313639D01*
X137852422Y-78245287D01*
X137960295Y-78169754D01*
X138113754Y-78016295D01*
X138238235Y-77838519D01*
X138329953Y-77641828D01*
X138386123Y-77432199D01*
X138405038Y-77216000D01*
X138386123Y-76999801D01*
X138329953Y-76790172D01*
X138238235Y-76593481D01*
X138238234Y-76593478D01*
X138113757Y-76415709D01*
X138113756Y-76415708D01*
X138113754Y-76415705D01*
X137960295Y-76262246D01*
X137960291Y-76262243D01*
X137944891Y-76246843D01*
X137947654Y-76244079D01*
X137911690Y-76207201D01*
X137875735Y-76121928D01*
X137873404Y-76029414D01*
X137905019Y-75942438D01*
X137966213Y-75873015D01*
X137987158Y-75856712D01*
X137159999Y-75029553D01*
X136332839Y-75856711D01*
X136332840Y-75856712D01*
X136353786Y-75873016D01*
X136414976Y-75942433D01*
X136446591Y-76029400D01*
X136444267Y-76121907D01*
X136408324Y-76207177D01*
X136372345Y-76244079D01*
X136375109Y-76246843D01*
X136359708Y-76262243D01*
X136359705Y-76262246D01*
X136206246Y-76415705D01*
X136206242Y-76415709D01*
X136081765Y-76593478D01*
X135990046Y-76790173D01*
X135933877Y-76999796D01*
X135914962Y-77216000D01*
X135933877Y-77432203D01*
X135990046Y-77641826D01*
X136081765Y-77838521D01*
X136206242Y-78016290D01*
X136206246Y-78016295D01*
X136220384Y-78030433D01*
X136274358Y-78111212D01*
X136293312Y-78206500D01*
X136274358Y-78301788D01*
X136220382Y-78382570D01*
X136139600Y-78436546D01*
X136044312Y-78455500D01*
X135116020Y-78455500D01*
X135116008Y-78455499D01*
X135095406Y-78455499D01*
X134867848Y-78455499D01*
X134867847Y-78455499D01*
X134822403Y-78463511D01*
X134800878Y-78466344D01*
X134786873Y-78467570D01*
X134754933Y-78470365D01*
X134710377Y-78482303D01*
X134689182Y-78487002D01*
X134643750Y-78495014D01*
X134600402Y-78510791D01*
X134579690Y-78517321D01*
X134535128Y-78529261D01*
X134493314Y-78548759D01*
X134473253Y-78557069D01*
X134429909Y-78572845D01*
X134389959Y-78595910D01*
X134370699Y-78605936D01*
X134328893Y-78625431D01*
X134291101Y-78651893D01*
X134272787Y-78663560D01*
X134232841Y-78686623D01*
X134197511Y-78716268D01*
X134180283Y-78729488D01*
X134142489Y-78755951D01*
X133981577Y-78916864D01*
X130304629Y-82593811D01*
X130227008Y-82646452D01*
X130135419Y-82666646D01*
X130042858Y-82651528D01*
X129962455Y-82603242D01*
X129905618Y-82528638D01*
X129880409Y-82438302D01*
X129860290Y-82195493D01*
X129801715Y-81964185D01*
X129705864Y-81745668D01*
X129615202Y-81606900D01*
X128435260Y-82786843D01*
X127608099Y-83614001D01*
X127608675Y-83623265D01*
X127637500Y-83654840D01*
X127670284Y-83732175D01*
X127675488Y-83816011D01*
X127652521Y-83896806D01*
X127603995Y-83965368D01*
X127435216Y-84134147D01*
X127435213Y-84134150D01*
X127435213Y-84134151D01*
X127417180Y-84159906D01*
X127304688Y-84320562D01*
X127208523Y-84526789D01*
X127208521Y-84526794D01*
X127183601Y-84619796D01*
X127149623Y-84746603D01*
X127129791Y-84973290D01*
X127149623Y-85199976D01*
X127167121Y-85265280D01*
X127208521Y-85419786D01*
X127208523Y-85419790D01*
X127304688Y-85626017D01*
X127304690Y-85626020D01*
X127304692Y-85626024D01*
X127435213Y-85812429D01*
X127596121Y-85973337D01*
X127596124Y-85973339D01*
X127690356Y-86039321D01*
X127756365Y-86107675D01*
X127791961Y-86195778D01*
X127791961Y-86290802D01*
X127756365Y-86378905D01*
X127690356Y-86447259D01*
X127596124Y-86513240D01*
X127435213Y-86674151D01*
X127304688Y-86860562D01*
X127208523Y-87066789D01*
X127208521Y-87066794D01*
X127183601Y-87159796D01*
X127149623Y-87286603D01*
X127129791Y-87513290D01*
X127149623Y-87739976D01*
X127167121Y-87805280D01*
X127208521Y-87959786D01*
X127208523Y-87959790D01*
X127304688Y-88166017D01*
X127304690Y-88166020D01*
X127304692Y-88166024D01*
X127435213Y-88352429D01*
X127596121Y-88513337D01*
X127596124Y-88513339D01*
X127690356Y-88579321D01*
X127756365Y-88647675D01*
X127791961Y-88735778D01*
X127791961Y-88830802D01*
X127756365Y-88918905D01*
X127690356Y-88987259D01*
X127596124Y-89053240D01*
X127435213Y-89214151D01*
X127304688Y-89400562D01*
X127208523Y-89606789D01*
X127208521Y-89606794D01*
X127179072Y-89716696D01*
X127149623Y-89826603D01*
X127129791Y-90053289D01*
X127149623Y-90279976D01*
X127149625Y-90279982D01*
X127208521Y-90499786D01*
X127208523Y-90499790D01*
X127304688Y-90706017D01*
X127304690Y-90706020D01*
X127304692Y-90706024D01*
X127435213Y-90892429D01*
X127596121Y-91053337D01*
X127596124Y-91053339D01*
X127690356Y-91119321D01*
X127756365Y-91187675D01*
X127791961Y-91275778D01*
X127791961Y-91370802D01*
X127756365Y-91458905D01*
X127690356Y-91527259D01*
X127596124Y-91593240D01*
X127435213Y-91754151D01*
X127304688Y-91940562D01*
X127208523Y-92146789D01*
X127208521Y-92146794D01*
X127179073Y-92256695D01*
X127149623Y-92366603D01*
X127129791Y-92593289D01*
X127149623Y-92819976D01*
X127149625Y-92819982D01*
X127208521Y-93039786D01*
X127208523Y-93039790D01*
X127304690Y-93246022D01*
X127441193Y-93440969D01*
X127478652Y-93522849D01*
X127484540Y-93612697D01*
X127458089Y-93698765D01*
X127402758Y-93769798D01*
X127325781Y-93816509D01*
X127237224Y-93832789D01*
X126992403Y-93832789D01*
X126946959Y-93840801D01*
X126925434Y-93843634D01*
X126911429Y-93844860D01*
X126879489Y-93847655D01*
X126834926Y-93859595D01*
X126813729Y-93864294D01*
X126768306Y-93872304D01*
X126724954Y-93888082D01*
X126704250Y-93894609D01*
X126672404Y-93903143D01*
X126659683Y-93906552D01*
X126617874Y-93926047D01*
X126597817Y-93934355D01*
X126554467Y-93950133D01*
X126514506Y-93973205D01*
X126495251Y-93983228D01*
X126472778Y-93993708D01*
X126453446Y-94002723D01*
X126415661Y-94029180D01*
X126397347Y-94040847D01*
X126357394Y-94063914D01*
X126322054Y-94093567D01*
X126304828Y-94106786D01*
X126267042Y-94133244D01*
X126106135Y-94294151D01*
X126106136Y-94294151D01*
X126106133Y-94294154D01*
X124199438Y-96200849D01*
X124199435Y-96200852D01*
X124199435Y-96200851D01*
X124038528Y-96361758D01*
X124012070Y-96399544D01*
X123998851Y-96416770D01*
X123969198Y-96452110D01*
X123946131Y-96492063D01*
X123934464Y-96510377D01*
X123908007Y-96548162D01*
X123908006Y-96548165D01*
X123892114Y-96582246D01*
X123888517Y-96589959D01*
X123878489Y-96609222D01*
X123855419Y-96649181D01*
X123839643Y-96692525D01*
X123831333Y-96712586D01*
X123811835Y-96754400D01*
X123799895Y-96798962D01*
X123793365Y-96819674D01*
X123777588Y-96863022D01*
X123769576Y-96908454D01*
X123764877Y-96929649D01*
X123752939Y-96974205D01*
X123748919Y-97020149D01*
X123746085Y-97041675D01*
X123738073Y-97087119D01*
X123738073Y-97335280D01*
X123738074Y-97335292D01*
X123738074Y-106261969D01*
X123738073Y-106261981D01*
X123738073Y-106510142D01*
X107950000Y-106510142D01*
X107950000Y-82433289D01*
X126990525Y-82433289D01*
X127010229Y-82671086D01*
X127068805Y-82902397D01*
X127164652Y-83120907D01*
X127255316Y-83259678D01*
X127255317Y-83259679D01*
X128081706Y-82433290D01*
X127255316Y-81606900D01*
X127164651Y-81745674D01*
X127068805Y-81964182D01*
X127010229Y-82195493D01*
X126990525Y-82433289D01*
X107950000Y-82433289D01*
X107950000Y-81252576D01*
X127608100Y-81252576D01*
X128435260Y-82079736D01*
X129262418Y-81252577D01*
X129262418Y-81252576D01*
X129225456Y-81223807D01*
X129015605Y-81110241D01*
X128789918Y-81032763D01*
X128554565Y-80993490D01*
X128315955Y-80993490D01*
X128080601Y-81032763D01*
X127854914Y-81110241D01*
X127645060Y-81223808D01*
X127608100Y-81252575D01*
X127608100Y-81252576D01*
X107950000Y-81252576D01*
X107950000Y-74675999D01*
X135715265Y-74675999D01*
X135734969Y-74913796D01*
X135793545Y-75145107D01*
X135889392Y-75363617D01*
X135980056Y-75502388D01*
X135980057Y-75502389D01*
X136806446Y-74676000D01*
X135980056Y-73849610D01*
X135889391Y-73988384D01*
X135793545Y-74206892D01*
X135734969Y-74438203D01*
X135715265Y-74675999D01*
X107950000Y-74675999D01*
X107950000Y-61209500D01*
X107968954Y-61114212D01*
X108022930Y-61033430D01*
X108103712Y-60979454D01*
X108199000Y-60960500D01*
X167389888Y-60960500D01*
X167467044Y-60972755D01*
G37*
%TD.AperFunction*%
%TD*%
%TA.AperFunction,NonConductor*%
G36*
X135760657Y-84721845D02*
G01*
X135841028Y-84769819D01*
X135898008Y-84844078D01*
X135923546Y-84934127D01*
X135933876Y-85052197D01*
X135990046Y-85261826D01*
X136081765Y-85458521D01*
X136199049Y-85626017D01*
X136206246Y-85636295D01*
X136359705Y-85789754D01*
X136392087Y-85812428D01*
X136520053Y-85902032D01*
X136586060Y-85970386D01*
X136621656Y-86058489D01*
X136621656Y-86153511D01*
X136586060Y-86241614D01*
X136520053Y-86309968D01*
X136359707Y-86422244D01*
X136206242Y-86575709D01*
X136081765Y-86753478D01*
X135990046Y-86950173D01*
X135933877Y-87159796D01*
X135914962Y-87376000D01*
X135933877Y-87592203D01*
X135990046Y-87801826D01*
X136081765Y-87998521D01*
X136199049Y-88166017D01*
X136206246Y-88176295D01*
X136357674Y-88327723D01*
X136411648Y-88408502D01*
X136430602Y-88503790D01*
X136411648Y-88599078D01*
X136357672Y-88679860D01*
X136276890Y-88733836D01*
X136181602Y-88752790D01*
X132127535Y-88752790D01*
X132032247Y-88733836D01*
X131951465Y-88679860D01*
X131897489Y-88599078D01*
X131878535Y-88503790D01*
X131897489Y-88408502D01*
X131951465Y-88327720D01*
X131955324Y-88323860D01*
X131955324Y-88323859D01*
X135499427Y-84779756D01*
X135576870Y-84727193D01*
X135668252Y-84706934D01*
X135760657Y-84721845D01*
G37*
%TD.AperFunction*%
%TA.AperFunction,NonConductor*%
G36*
X132151184Y-93912744D02*
G01*
X132231966Y-93966720D01*
X132285942Y-94047502D01*
X132304896Y-94142790D01*
X132285942Y-94238078D01*
X132231966Y-94318860D01*
X130250967Y-96299860D01*
X130199397Y-96339430D01*
X130139343Y-96364306D01*
X130074897Y-96372790D01*
X129633296Y-96372790D01*
X129544739Y-96356510D01*
X129467762Y-96309800D01*
X129412431Y-96238766D01*
X129385980Y-96152698D01*
X129391868Y-96062850D01*
X129429326Y-95980971D01*
X129437749Y-95968940D01*
X129565828Y-95786024D01*
X129661999Y-95579786D01*
X129720895Y-95359982D01*
X129740728Y-95133290D01*
X129728717Y-94995999D01*
X129720896Y-94906603D01*
X129720895Y-94906598D01*
X129661999Y-94686794D01*
X129565828Y-94480556D01*
X129435307Y-94294151D01*
X129429326Y-94285609D01*
X129391868Y-94203730D01*
X129385980Y-94113882D01*
X129412431Y-94027814D01*
X129467762Y-93956780D01*
X129544739Y-93910070D01*
X129633296Y-93893790D01*
X132055896Y-93893790D01*
X132151184Y-93912744D01*
G37*
%TD.AperFunction*%
M02*
